<svg width="23" height="18" viewBox="0 0 23 18" fill="none" xmlns="http://www.w3.org/2000/svg">
<path d="M14.3554 9.20215L15.6617 7.83903C15.7568 8.21009 15.8125 8.59802 15.8125 9.00002C15.8125 11.4814 13.878 13.5 11.5 13.5C11.1147 13.5 10.743 13.4419 10.3874 13.3427L11.6937 11.9796C12.3842 11.9306 13.0343 11.6223 13.5236 11.1117C14.013 10.601 14.3085 9.92265 14.3554 9.20215ZM22.9094 8.63571C22.821 8.46977 21.5672 6.17722 19.1162 4.23435L18.0703 5.32578C19.8574 6.69697 20.9898 8.29615 21.4356 9.00115C20.5837 10.3547 17.2419 15 11.5 15C10.6389 15 9.83823 14.8851 9.0848 14.7017L7.90372 15.9341C8.98957 16.2816 10.1831 16.5 11.5 16.5C19.024 16.5 22.7544 9.65552 22.9094 9.36433C22.9688 9.25291 23 9.12752 23 9.00002C23 8.87252 22.9688 8.74713 22.9094 8.63571ZM19.9144 1.28029L4.10189 17.7803C3.96155 17.9267 3.77755 18 3.59373 18C3.40991 18 3.22591 17.9267 3.08558 17.7803C3.01879 17.7106 2.96581 17.628 2.92966 17.537C2.89352 17.446 2.87491 17.3485 2.87491 17.25C2.87491 17.1515 2.89352 17.054 2.92966 16.963C2.96581 16.872 3.01879 16.7894 3.08558 16.7198L5.09736 14.6205C1.84501 12.5717 0.192425 9.55577 0.0905422 9.36433C0.0311624 9.25287 0 9.12745 0 8.99993C0 8.8724 0.0311624 8.74698 0.0905422 8.63552C0.245613 8.34452 3.97593 1.50004 11.5 1.50004C13.4455 1.50004 15.1306 1.96317 16.5711 2.64791L18.8981 0.219796C19.1789 -0.0732654 19.6337 -0.0732654 19.9144 0.219796C20.1951 0.512858 20.1952 0.987419 19.9144 1.28029ZM6.16919 13.5021L7.98889 11.6033C7.4863 10.8675 7.18748 9.97033 7.18748 9.00002C7.18748 6.51865 9.122 4.50003 11.5 4.50003C12.4299 4.50003 13.2897 4.81185 13.9948 5.3361L15.4662 3.80066C14.3036 3.31485 12.9826 3.00004 11.5 3.00004C5.75807 3.00004 2.41624 7.64534 1.56452 8.9989C2.10538 9.85427 3.66004 12.0195 6.16919 13.5021ZM9.03234 10.5143L12.9511 6.42509C12.5237 6.16165 12.0315 6.00003 11.5 6.00003C9.91478 6.00003 8.62498 7.3459 8.62498 9.00002C8.62498 9.55465 8.77987 10.0682 9.03234 10.5143Z" fill="black"/>
</svg>
