<?xml version="1.0" encoding="UTF-8"?>
<svg version="1.1" xmlns="http://www.w3.org/2000/svg" width="1024" height="1024">
<path d="M0 0 C337.92 0 675.84 0 1024 0 C1024 337.92 1024 675.84 1024 1024 C686.08 1024 348.16 1024 0 1024 C0 686.08 0 348.16 0 0 Z " fill="#FEFEFE" transform="translate(0,0)"/>
<path d="M0 0 C9.57284671 3.52683826 16.89635482 8.69730347 24 16 C24.68449219 16.66386719 25.36898438 17.32773438 26.07421875 18.01171875 C37.02417952 29.30588261 42.89234783 44.06512188 47 59 C47.19505127 59.66201416 47.39010254 60.32402832 47.59106445 61.00610352 C49.50060076 68.25996623 49.34909425 75.60895191 49.3125 83.0625 C49.31200653 83.74887543 49.31151306 84.43525085 49.31100464 85.14242554 C49.25951629 108.48096741 49.25951629 108.48096741 45 117 C46.134375 117.061875 47.26875 117.12375 48.4375 117.1875 C58.16993269 118.27740966 68.03264349 121.42255433 76.75 125.8125 C82.27763303 128.25915724 87.07664255 128.22282261 93 128.0625 C114.15325832 127.51126886 132.87173666 132.99662665 149 147 C150.010625 147.763125 151.02125 148.52625 152.0625 149.3125 C169.0812033 164.88280302 177.83793163 187.87869314 179.21484375 210.53515625 C179.57187905 224.11677912 177.47560515 236.87595639 171.890625 249.265625 C170.31942384 254.08948821 172.19346288 257.790636 174.0625 262.3125 C174.42472656 263.19550781 174.78695312 264.07851563 175.16015625 264.98828125 C175.43730469 265.65214844 175.71445312 266.31601562 176 267 C178.14358777 267.22263215 178.14358777 267.22263215 179.74902344 265.43041992 C180.44543945 264.70443604 181.14185547 263.97845215 181.859375 263.23046875 C182.63837158 262.42923584 183.41736816 261.62800293 184.2199707 260.80249023 C185.05488037 259.93954346 185.88979004 259.07659668 186.75 258.1875 C193.90291038 250.91899246 201.09772056 244.19459115 209.34814453 238.203125 C211.02862323 236.97915234 212.68442414 235.72634812 214.33984375 234.46875 C230.31176422 222.5064782 248.01365624 213.62604761 267.0625 207.75 C267.85317871 207.5034668 268.64385742 207.25693359 269.45849609 207.00292969 C280.86433929 203.63222679 292.1472248 202.6715048 304 202.75 C305.75183594 202.73839844 305.75183594 202.73839844 307.5390625 202.7265625 C315.52986508 202.74428047 323.14742802 203.53880834 331 205 C331.72993164 205.13535156 332.45986328 205.27070313 333.21191406 205.41015625 C360.95856248 210.97382529 386.2403249 226.49126025 408 244 C408.80727539 244.648479 408.80727539 244.648479 409.63085938 245.31005859 C424.44388292 257.33126079 438.32691198 270.90216302 450 286 C451.45825824 287.70839743 452.91659472 289.41672808 454.375 291.125 C468.67816883 308.70389456 479.99299482 327.75744465 478 351 C475.703957 362.02100638 468.95724004 370.44631274 460 377 C445.55429072 386.14316762 428.31754685 386.90501121 412 383.375 C401.2247302 380.86236017 390.83081196 377.08126324 381 372 C381.2165625 372.63421875 381.433125 373.2684375 381.65625 373.921875 C385.23806416 385.92758544 386.84313258 402.50088144 381 414 C374.51667889 425.54347416 365.60341132 431.82968712 353.06640625 435.578125 C338.75738854 438.49943674 324.65060811 433.26287882 312.640625 425.78125 C308.98782381 423.31723026 305.43592861 420.75884856 302 418 C301.76216797 419.55847656 301.76216797 419.55847656 301.51953125 421.1484375 C299.62002987 432.81580255 297.00731435 443.59386483 287 451 C276.11853935 457.31181838 266.16407968 460.19231385 253.5546875 457.17578125 C249.20275895 455.73761322 245.06598183 454.11889194 241 452 C240.814375 452.70125 240.62875 453.4025 240.4375 454.125 C236.99177645 461.01644711 230.08672219 464.62651051 223 467 C221.62714844 467.20689453 221.62714844 467.20689453 220.2265625 467.41796875 C217.08044849 467.92220894 214.79949542 468.45324683 212 470 C209.7971574 473.29335874 208.24106549 476.71532542 206.6875 480.33984375 C204.09697529 486.30021968 199.83922077 491.58536025 194.8972168 495.78833008 C192.50106424 498.58163159 192.57406154 499.84667447 192.75 503.47265625 C192.7809375 504.53806641 192.811875 505.60347656 192.84375 506.70117188 C192.94664836 508.91477286 193.05078341 511.12831676 193.15625 513.34179688 C193.5084907 525.57482271 189.63931898 535.70632506 181.375 544.78515625 C175.59727156 550.2285254 169.29235558 552.15421671 161.4375 552.1875 C159.9577692 552.14020267 158.47814012 552.08331896 157 552 C156.97873047 553.00740234 156.97873047 553.00740234 156.95703125 554.03515625 C155.79019913 578.47555885 147.8089189 602.70147961 136 624 C135.64147949 624.64839844 135.28295898 625.29679688 134.91357422 625.96484375 C130.03502886 634.67422212 124.62390782 642.49366848 118 650 C117.23429688 650.87527344 116.46859375 651.75054688 115.6796875 652.65234375 C113.48175806 655.129671 111.25202002 657.57184434 109 660 C108.46246094 660.59167969 107.92492187 661.18335938 107.37109375 661.79296875 C89.53293092 680.61468943 62.43322491 696.71373378 37 702 C36.01 702 35.02 702 34 702 C33.72236816 702.73178467 33.44473633 703.46356934 33.15869141 704.2175293 C32.08298496 706.80072069 30.87575772 709.10958464 29.4609375 711.51953125 C28.967146 712.36821777 28.47335449 713.2169043 27.96459961 714.09130859 C27.44003174 714.98930176 26.91546387 715.88729492 26.375 716.8125 C21.23032098 725.72831211 16.45804612 734.72581561 12 744 C11.10421301 745.84637665 10.20837631 747.69272918 9.3125 749.5390625 C3.96981797 760.59379942 -1.19496557 771.70078934 -6 783 C-6.99 783 -7.98 783 -9 783 C-9.23074219 782.23671387 -9.46148437 781.47342773 -9.69921875 780.68701172 C-16.81423097 757.23629705 -24.24489242 734.08646702 -35 712 C-35.36883301 711.1752417 -35.73766602 710.3504834 -36.11767578 709.50073242 C-38.14282146 705.31378762 -39.07224311 703.39387877 -43.46875 701.52734375 C-44.80742563 701.29871977 -46.15217566 701.10390586 -47.5 700.9375 C-75.84493872 695.77257421 -101.16563463 680.15480947 -121.62792969 660.32080078 C-122.77778149 659.21391497 -123.95252078 658.13296185 -125.1328125 657.05859375 C-136.84706976 646.10404773 -145.78248551 632.21184399 -153 618 C-153.31662598 617.38447266 -153.63325195 616.76894531 -153.95947266 616.13476562 C-167.11218256 590.2826507 -172.60699499 562.83226188 -172 534 C-172.60585938 533.86464844 -173.21171875 533.72929688 -173.8359375 533.58984375 C-185.72230199 530.53596241 -194.65092373 523.32380828 -200.87890625 512.8359375 C-206.52062164 502.21208095 -208.96945518 492.21743798 -209.3125 480.25 C-209.53100326 472.97488975 -211.17549477 468.45156294 -216 463 C-216.99 461.515 -216.99 461.515 -218 460 C-218.55945313 460.2165625 -219.11890625 460.433125 -219.6953125 460.65625 C-229.95529853 464.21920335 -240.38522171 464.50055553 -250.4765625 460.25390625 C-263.09131749 453.98558372 -270.49375035 445.36402794 -275 432 C-276.09496863 428.28395021 -276.07449876 424.87393558 -276 421 C-276.66 421 -277.32 421 -278 421 C-278.27328125 421.59425781 -278.5465625 422.18851562 -278.828125 422.80078125 C-284.353475 433.17002142 -299.17423425 441.38423728 -310 445 C-318.85324805 447.21331201 -329.39590402 447.34056719 -337.7265625 443.3828125 C-348.60920474 436.76347341 -354.80439043 427.02529818 -358.3203125 414.9375 C-359.73971224 406.71477048 -359.30652846 398.31281603 -359 390 C-360.00353516 390.81791016 -360.00353516 390.81791016 -361.02734375 391.65234375 C-373.08428061 401.11987135 -386.05940903 408.28145292 -401 412 C-401.62406738 412.17362061 -402.24813477 412.34724121 -402.89111328 412.52612305 C-414.54115822 415.14394398 -428.00466269 413.82575716 -438.1875 407.6796875 C-446.79846729 401.71072154 -453.72131891 393.3661793 -456 383 C-459.58821054 346.966812 -436.29909621 314.10445937 -415 287 C-414.23042969 286.01644531 -413.46085937 285.03289062 -412.66796875 284.01953125 C-406.79658616 276.68823731 -400.47446155 269.79718856 -394 263 C-393.47889648 262.45021484 -392.95779297 261.90042969 -392.42089844 261.33398438 C-384.52869527 253.05762591 -376.18405148 245.80723841 -367 239 C-366.16082031 238.36578125 -365.32164062 237.7315625 -364.45703125 237.078125 C-352.37957591 228.25773885 -339.25778088 221.46998835 -325 217 C-324.36562012 216.78972168 -323.73124023 216.57944336 -323.07763672 216.36279297 C-293.81478192 206.98947681 -257.83428231 212.37260583 -230.8125 225.8125 C-228.18487465 227.16729339 -225.58728045 228.56982524 -223 230 C-222.04697998 230.52400391 -222.04697998 230.52400391 -221.07470703 231.05859375 C-207.07806768 238.85473258 -195.11194282 248.89792569 -183.05859375 259.37109375 C-180.4269743 261.65161083 -177.73585238 263.8449431 -175 266 C-173.44849443 262.51282367 -171.93963206 259.00869481 -170.4375 255.5 C-169.78104492 254.02660156 -169.78104492 254.02660156 -169.11132812 252.5234375 C-166.53718373 246.44278144 -165.41577487 242.4051534 -167 236 C-172.02130284 211.40440871 -169.64170685 186.46190518 -155.77001953 165.10644531 C-153.05811804 161.21377375 -150.10319969 157.58614799 -147 154 C-146.42765625 153.32710937 -145.8553125 152.65421875 -145.265625 151.9609375 C-132.13363895 137.72378431 -111.14667969 128.21741894 -92 127 C-89.59450798 127.03861266 -87.19883524 127.15296563 -84.79589844 127.26855469 C-74.21622614 127.70029721 -66.31207741 125.86333887 -56.609375 121.82421875 C-52.00140876 119.91798208 -47.35742698 118.66068276 -42.5 117.5625 C-41.43120605 117.31741699 -41.43120605 117.31741699 -40.34082031 117.06738281 C-37.49666406 116.44292014 -34.9208079 116 -32 116 C-34.80895447 98.02401427 -34.80895447 98.02401427 -41 81 C-41.37898438 80.19820313 -41.75796875 79.39640625 -42.1484375 78.5703125 C-47.95993252 67.29835236 -56.3799071 57.44483006 -68.625 53.1875 C-71.49793815 52.34850036 -74.39715639 51.67360065 -77.3125 51 C-83.12318339 49.42422145 -83.12318339 49.42422145 -85 47 C-85.624462 43.87174274 -85.61567798 41.1292257 -85 38 C-83.25 35.4375 -83.25 35.4375 -80 34 C-68.74064195 32.17889077 -57.80715319 36.12476262 -48.5625 42.4375 C-47.02791928 43.60718042 -45.50564948 44.7933062 -44 46 C-43.08347656 46.67289063 -43.08347656 46.67289063 -42.1484375 47.359375 C-25.39940331 60.36090839 -17.70280759 82.64801408 -14.375 102.78125 C-13.93240463 106.58019359 -13.93299451 110.18068695 -14 114 C-13.34 113.67 -12.68 113.34 -12 113 C-9.85463672 112.90218989 -7.70618455 112.86922465 -5.55859375 112.8671875 C-4.25212891 112.86589844 -2.94566406 112.86460937 -1.59960938 112.86328125 C-0.91535889 112.86537598 -0.2311084 112.8674707 0.47387695 112.86962891 C2.530188 112.87491691 4.58627444 112.86971416 6.64257812 112.86328125 C13.51289489 112.87001355 20.19301749 113.05228752 27 114 C31.40670317 86.70813088 31.93465143 60.066406 16 36 C9.37737578 27.34517183 2.24375973 21.19643125 -7.8125 16.9375 C-13.63942911 14.40142723 -13.63942911 14.40142723 -15 11 C-14.93294437 7.24488463 -14.47361596 4.80308794 -12.5625 1.5625 C-8.34651903 -1.0082201 -4.79329775 -0.91840088 0 0 Z " fill="#023744" transform="translate(501,79)"/>
<path d="M0 0 C0 0.66 0 1.32 0 2 C-1.72743792 3.23000815 -3.51025439 4.38247032 -5.3125 5.5 C-23.8649672 17.65732263 -36.79902306 35.58298091 -41.51171875 57.3828125 C-45.8512731 80.64282381 -41.93220574 105.77552046 -28.86572266 125.73242188 C-16.02294625 144.30359301 2.73661983 157.18020849 25.03125 161.49609375 C46.78681105 164.66226498 69.22122148 160.22214343 87 147 C92.27859775 142.60494436 97.15119078 137.8588544 102 133 C106.91317561 148.82095059 111.42088685 164.58704191 114.5 180.875 C114.74250488 182.15576416 114.98500977 183.43652832 115.23486328 184.75610352 C117.26715149 195.87604558 118.16458196 206.4692042 118.13037109 217.75878906 C118.12495851 219.89134659 118.13037187 222.02369843 118.13671875 224.15625 C118.13605881 225.51822963 118.13477939 226.88020913 118.1328125 228.2421875 C118.13168457 229.4679248 118.13055664 230.69366211 118.12939453 231.95654297 C118 235 118 235 117 238 C116.34 238 115.68 238 115 238 C113.93139005 236.83370548 112.9197002 235.61494068 111.9375 234.375 C107.58278481 229.23515796 102.43969223 225.14656408 96 223 C85.93567273 222.21991872 79.08546429 222.74240199 71.3125 229.25 C70.1678125 230.61125 70.1678125 230.61125 69 232 C68.5565625 232.50660156 68.113125 233.01320313 67.65625 233.53515625 C64.12934095 238.20010863 63.61622258 242.53754393 63.1875 248.25 C62.61573276 255.38700992 62.61573276 255.38700992 60.24609375 257.74609375 C58.125 258.6875 58.125 258.6875 55.96484375 259.3671875 C51.76699835 260.71917747 50.21969367 264.59199746 48.25 268.25 C45.94350525 275.16948425 46.96630695 281.89336031 48 289 C13.04395867 318.05881187 -37.51444508 327.28688346 -81.75292969 323.6953125 C-113.78287884 320.47010313 -144.13948249 312.37853088 -172 296 C-172.68271973 295.60055176 -173.36543945 295.20110352 -174.06884766 294.78955078 C-182.31681424 289.82939152 -187.30549762 284.92565849 -191.515625 276.046875 C-195.91321906 267.02023455 -203.15045212 262.32085465 -212 258 C-212.66950684 257.80019531 -213.33901367 257.60039062 -214.02880859 257.39453125 C-218.25729731 256.12979057 -219.66227771 255.51873171 -222.171875 251.6640625 C-222.7290656 250.3302979 -223.25405118 248.98272757 -223.75 247.625 C-224.17466553 246.56285278 -224.17466553 246.56285278 -224.60791016 245.47924805 C-240.01637554 206.1290086 -228.62605359 165.04180286 -214 127 C-213.34 127 -212.68 127 -212 127 C-210.71211757 128.47144268 -209.49429673 130.0045715 -208.3125 131.5625 C-194.37043752 149.25056147 -175.31457217 159.70990262 -153 163 C-130.17340827 165.15713401 -108.98673955 158.41846823 -90.96484375 144.6875 C-73.48124341 129.73668564 -63.64087051 108.63250704 -61 86 C-59.5275227 64.47780143 -64.2769874 43.70382686 -77 26 C-77.64582031 25.09507812 -78.29164063 24.19015625 -78.95703125 23.2578125 C-85.95620331 14.0900658 -94.99157089 6.71910235 -105 1 C-79.71795361 -15.85469759 -27.29532976 -6.24697238 0 0 Z " fill="#F28E38" transform="translate(559,215)"/>
<path d="M0 0 C1.13695312 0.24492187 2.27390625 0.48984375 3.4453125 0.7421875 C31.77209492 7.53820961 56.55350533 23.7177147 78 43 C78.60054199 43.53882813 79.20108398 44.07765625 79.81982422 44.6328125 C98.84825289 61.81282127 128.82594645 88.88892261 132.5 115.640625 C132.77403773 123.69048342 131.86497217 129.62437089 126.4921875 135.70703125 C118.77369042 143.08447845 108.00029 144.37415421 97.734375 144.28125 C72.70433028 142.39614203 49.24724813 127.78981489 31.5625 110.75 C28.6956886 108.17848248 28.29612403 108.00970898 24.1875 107.875 C21.07746517 108.97265935 19.97866544 109.49313457 18 112 C16.81658792 116.88203279 17.72429998 121.10262013 20.1953125 125.39453125 C21.15376831 126.87903561 22.13111091 128.35148144 23.125 129.8125 C24.1425728 131.39374666 25.15690523 132.97708334 26.16796875 134.5625 C26.6582959 135.32304687 27.14862305 136.08359375 27.65380859 136.8671875 C35.72155607 149.64916827 41.40783292 164.07939657 38.5625 179.34765625 C36.70168292 185.38368165 32.51841143 190.01561596 27.046875 193.1015625 C17.52403873 197.11315101 8.30195784 194.58312631 -1 191 C-17.63080398 182.1438418 -30.45678854 167.67961001 -38.94140625 151.046875 C-39.83669851 149.06221712 -39.83669851 149.06221712 -41 148 C-45.85321005 148.25927961 -45.85321005 148.25927961 -50 150.5625 C-52.37259214 156.34569334 -49.35511644 163.70510931 -47.77709961 169.47631836 C-44.44061091 181.7405096 -40.95724053 194.75071082 -45.88671875 207.1328125 C-48.91475754 212.2114179 -53.48100979 215.15757019 -59 217 C-67.10901605 218.18334336 -73.21042343 216.44156287 -80 212 C-83.0910892 209.6714959 -85.90465435 207.18174696 -88.53515625 204.34375 C-89.98284259 202.76433148 -89.98284259 202.76433148 -92.5 202.625 C-95.53479319 203.08021898 -96.18656934 203.56001886 -98 206 C-98.53820337 208.9916104 -98.53820337 208.9916104 -98.75 212.3125 C-99.35422824 216.90565873 -99.82285353 219.65887679 -103.375 222.75 C-105.86370482 224.56993392 -108.02118795 225.30373453 -111 226 C-111.0093457 225.26587891 -111.01869141 224.53175781 -111.02832031 223.77539062 C-111.39910069 200.55436049 -113.36366432 173.51036185 -131 156 C-131.68344482 155.62391602 -132.36688965 155.24783203 -133.07104492 154.86035156 C-135 153 -135 153 -135.49829102 149.70385742 C-135.51967584 148.33789397 -135.52011025 146.97150349 -135.50390625 145.60546875 C-135.51201324 144.870401 -135.52012024 144.13533325 -135.5284729 143.37799072 C-135.54543496 141.80111996 -135.55442466 140.22414721 -135.5562439 138.64718628 C-135.56674365 134.51904345 -135.65343904 130.39272162 -135.7421875 126.265625 C-135.76755836 125.04660744 -135.76755836 125.04660744 -135.79344177 123.80296326 C-136.17646385 107.75152583 -139.3455449 92.40111705 -143.10620117 76.82983398 C-143.36506104 75.73872314 -143.6239209 74.6476123 -143.890625 73.5234375 C-144.12813477 72.55325684 -144.36564453 71.58307617 -144.61035156 70.58349609 C-145.01010689 67.93298802 -144.96721072 66.47810611 -144 64 C-142.26020661 61.8790813 -140.51802569 59.91155924 -138.625 57.9375 C-138.08625244 57.36676758 -137.54750488 56.79603516 -136.99243164 56.20800781 C-135.33735435 54.46306755 -133.67038828 52.73027672 -132 51 C-131.51611816 50.4942041 -131.03223633 49.9884082 -130.53369141 49.46728516 C-97.4246348 14.96171298 -48.96813343 -11.06552626 0 0 Z " fill="#FDFDFD" transform="translate(829,302)"/>
<path d="M0 0 C1.66139692 1.44848733 3.31067115 2.90972528 4.95727539 4.375 C5.56941895 4.91237793 6.1815625 5.44975586 6.81225586 6.00341797 C8.67955848 7.66243897 10.50894437 9.35538238 12.33227539 11.0625 C12.91033936 11.57264648 13.48840332 12.08279297 14.08398438 12.60839844 C15.66821289 14.13671875 15.66821289 14.13671875 17.95727539 17.375 C17.96051157 20.4720209 17.71237585 22.45671713 16.95727539 25.375 C16.68947266 26.58289185 16.68947266 26.58289185 16.41625977 27.81518555 C15.81310544 30.50932565 15.16701306 33.19113681 14.51977539 35.875 C9.0470472 59.49682216 6.29583387 85.40482182 15.26489258 108.53393555 C18.25773669 116.3286877 18.25773669 116.3286877 17.29321289 119.6875 C13.99977663 123.95608778 9.19362453 125.8661778 4.41040039 128.0859375 C-6.75581128 133.95353281 -13.22947832 147.94948966 -17.04272461 159.375 C-17.81204441 162.79545617 -18.50373171 166.20096219 -19.07397461 169.66015625 C-20.04272461 172.375 -20.04272461 172.375 -22.44897461 174.18359375 C-28.94769115 177.16869698 -35.97093414 177.64140066 -42.84350586 175.50390625 C-49.27574859 172.52691986 -54.12438751 168.70258724 -57.03491211 162.13671875 C-61.60288423 149.19413106 -60.71985732 135.85349807 -58.0222168 122.62988281 C-57.00577209 117.41087551 -56.43787513 112.30149023 -59.10522461 107.4375 C-61.77199519 105.97507743 -64.10294353 105.91771732 -67.10522461 105.78125 C-69.25066146 106.22854979 -69.25066146 106.22854979 -70.56616211 108.4375 C-71.96832478 111.22698764 -73.34919492 114.02496723 -74.69262695 116.84326172 C-82.87616647 133.89469282 -94.03827376 150.36414464 -111.91772461 158.25 C-117.56345197 160.11691383 -123.79596476 160.69213296 -129.38256836 158.42578125 C-136.7874696 154.05454532 -139.9366585 148.52585379 -142.04272461 140.375 C-142.45371543 137.31835844 -142.52134818 134.33137629 -142.48022461 131.25 C-142.47120117 130.4237915 -142.46217773 129.59758301 -142.45288086 128.74633789 C-142.10602084 116.25817288 -138.10066114 105.5844559 -132.59741211 94.53881836 C-130.44811338 90.07167804 -129.52846975 87.33549007 -131.04272461 82.375 C-131.37272461 81.715 -131.70272461 81.055 -132.04272461 80.375 C-133.98623034 79.71489642 -133.98623034 79.71489642 -136.29272461 79.4375 C-137.06100586 79.30472656 -137.82928711 79.17195313 -138.62084961 79.03515625 C-142.21242996 79.53913607 -143.76931794 81.76660201 -146.04272461 84.375 C-147.24081338 85.67412214 -148.44154604 86.97080881 -149.64428711 88.265625 C-150.29349121 88.97074219 -150.94269531 89.67585938 -151.61157227 90.40234375 C-167.26192748 107.32003954 -187.05824677 124.92422129 -211.20678711 126.59375 C-219.39607077 126.81966127 -225.66452852 126.12131899 -232.35522461 121.0625 C-237.22680837 116.19091624 -238.82348235 111.13745252 -239.35522461 104.4375 C-238.49340071 66.20945415 -199.40951954 23.72006133 -173.57788086 -1.33984375 C-120.94010485 -51.07186343 -53.41336666 -45.75271194 0 0 Z " fill="#FDFEFD" transform="translate(301.042724609375,347.625)"/>
<path d="M0 0 C9.8419869 7.98251031 17.09624982 17.29264028 22.28076172 28.84619141 C22.56733643 29.48258545 22.85391113 30.11897949 23.14916992 30.7746582 C29.9933743 46.96553711 29.65786637 67.44632138 23.40576172 83.78369141 C16.26662129 101.19217714 3.12682732 114.8271814 -14.03564453 122.75244141 C-28.53125216 128.59494586 -45.81646308 128.93250901 -60.59423828 123.78369141 C-61.43857422 123.51685547 -62.28291016 123.25001953 -63.15283203 122.97509766 C-72.2036978 119.79811669 -80.19028483 113.87996415 -86.59423828 106.78369141 C-87.19623047 106.18556641 -87.79822266 105.58744141 -88.41845703 104.97119141 C-103.17009213 89.68568761 -106.20710439 70.56357529 -105.93408203 50.15478516 C-105.3093975 32.58844876 -96.80104136 18.05474082 -84.59423828 5.78369141 C-84.00384766 5.15849609 -83.41345703 4.53330078 -82.80517578 3.88916016 C-61.27638072 -17.11801211 -23.50949499 -17.93634059 0 0 Z " fill="#FCFDFD" transform="translate(454.59423828125,235.21630859375)"/>
<path d="M0 0 C15.1087559 11.54428533 25.30900151 28.27588314 28.31640625 47.1484375 C30.21254964 67.61807734 26.26908844 86.77025258 13.31640625 103.1484375 C2.73394027 115.41627311 -10.51710735 125.06963239 -27.21630859 126.34130859 C-48.43683204 126.97966527 -65.1952985 123.91035999 -81.45239258 109.01538086 C-93.79409957 97.08747141 -102.30984957 80.02993762 -103.01953125 62.765625 C-103.34461609 42.21244659 -99.5510704 24.7359076 -85.01342773 9.33105469 C-62.6044778 -13.3401883 -26.75643789 -18.46077374 0 0 Z " fill="#FCFDFD" transform="translate(634.68359375,234.8515625)"/>
<path d="M0 0 C4.23628352 3.04735381 8.24935228 6.18332951 12.0625 9.75 C53.1530309 46.57047573 112.07069343 54.3428326 165 52 C173.46269423 51.4190561 181.74309229 49.89540539 190 48 C190.86689453 47.80744629 191.73378906 47.61489258 192.62695312 47.41650391 C210.9594536 43.2572918 229.60143152 36.42932155 244.875 25.22265625 C248 23 248 23 250 23 C251.22065556 24.62754075 252.37576021 26.30442523 253.5 28 C257.6162357 33.84264224 262.30536163 37.77665296 268 42 C268.66 42.66 269.32 43.32 270 44 C266.11661937 48.97558143 261.86159838 52.98590689 257 57 C256.01128906 57.82628906 255.02257812 58.65257812 254.00390625 59.50390625 C216.18120983 90.52053393 168.69140124 102.57749128 120.39501953 98.71142578 C72.0043819 93.66014022 30.21091705 72.11202168 -3 37 C-3.80308594 36.17242188 -4.60617187 35.34484375 -5.43359375 34.4921875 C-8.59879907 29.4562748 -6.93534795 23.82553258 -5.72460938 18.328125 C-5.54736328 17.55984375 -5.37011719 16.7915625 -5.1875 16 C-4.9390332 14.84757813 -4.9390332 14.84757813 -4.68554688 13.671875 C-3.59349402 8.82563291 -2.09151102 4.50663692 0 0 Z " fill="#EC8C3D" transform="translate(356,557)"/>
<path d="M0 0 C2.65103719 2.6364175 5.28270099 5.28625476 7.875 7.98046875 C15.09304344 15.42617062 22.54952623 21.99404009 31 28 C31.83772949 28.60424805 31.83772949 28.60424805 32.69238281 29.22070312 C65.05135272 52.3840724 103.267543 64.52509546 143.0625 64.3125 C144.1350856 64.30976578 144.1350856 64.30976578 145.2293396 64.30697632 C192.91301793 64.10364994 238.3703394 47.18675808 273 14 C276.15010875 10.79738943 279.12499692 7.45156196 282 4 C283 6 283 6 282.33837891 8.17626953 C281.97147949 9.06942871 281.60458008 9.96258789 281.2265625 10.8828125 C280.61470093 12.37482178 280.61470093 12.37482178 279.99047852 13.89697266 C279.53987061 14.96222168 279.0892627 16.0274707 278.625 17.125 C277.93651978 18.75574463 277.93651978 18.75574463 277.23413086 20.41943359 C262.28840922 55.20098727 236.19397924 82.2903863 201.3671875 97.66015625 C189.84817857 102.24370621 178.21546748 104.99568826 166 107 C165.08017334 107.17128418 164.16034668 107.34256836 163.21264648 107.51904297 C143.08898079 110.53170513 121.47148927 108.28649452 102 103 C100.87658203 102.69570068 100.87658203 102.69570068 99.73046875 102.38525391 C90.0269783 99.65100766 80.98994502 95.48995019 72 91 C71.02160156 90.51660156 70.04320312 90.03320312 69.03515625 89.53515625 C34.63915378 71.72029701 12.3246508 39.83310267 0.49975586 3.79321289 C0 2 0 2 0 0 Z " fill="#EC8C3D" transform="translate(353,657)"/>
<path d="M0 0 C0 0.66 0 1.32 0 2 C-1.72743792 3.23000815 -3.51025439 4.38247032 -5.3125 5.5 C-23.8649672 17.65732263 -36.79902306 35.58298091 -41.51171875 57.3828125 C-45.8512731 80.64282381 -41.93220574 105.77552046 -28.86572266 125.73242188 C-19.01777665 139.97294781 -6.46409318 149.45315213 9 157 C5.23375329 158.25541557 3.62811066 157.37061958 0 156 C-0.98169476 157.12279462 -1.96027298 158.24831473 -2.9375 159.375 C-3.48277344 160.00148438 -4.02804687 160.62796875 -4.58984375 161.2734375 C-6.06958624 162.95632334 -6.06958624 162.95632334 -7 165 C-5.824375 164.9690625 -5.824375 164.9690625 -4.625 164.9375 C-2 165 -2 165 0 166 C0 164.35 0 162.7 0 161 C0.66 161 1.32 161 2 161 C3.7143618 162.95927063 5.38405168 164.95880212 7 167 C6.34 168.32 5.68 169.64 5 171 C-0.75 169.25 -0.75 169.25 -3 167 C-7.94908766 167.25343834 -11.00804951 169.02311295 -15.0625 171.75 C-30.96635878 182.06482808 -50.46458944 185.14165398 -69.11328125 181.31640625 C-72.21421337 180.40392195 -75.0608949 179.34194435 -78 178 C-79.06476563 177.51789063 -80.12953125 177.03578125 -81.2265625 176.5390625 C-85.50287615 174.48934525 -89.57782471 172.41284716 -93.375 169.5625 C-95.94735979 167.7282742 -95.94735979 167.7282742 -99.1875 168 C-102.42843291 169.1523317 -103.28292412 170.080971 -105 173 C-105.66 173.99 -106.32 174.98 -107 176 C-106.125 168.25 -106.125 168.25 -105 166 C-105.66 165.67 -106.32 165.34 -107 165 C-107 164.67 -107 164.34 -107 164 C-107.66 164 -108.32 164 -109 164 C-108.690625 163.4225 -108.38125 162.845 -108.0625 162.25 C-107.07416636 160.15705816 -106.4831387 158.25464725 -106 156 C-105.34 156 -104.68 156 -104 156 C-104 155.01 -104 154.02 -104 153 C-101.9453125 151.4921875 -101.9453125 151.4921875 -99.125 149.875 C-81.30722277 138.90143937 -68.67405772 120.86716069 -63.625 100.5625 C-58.15034289 76.9738687 -60.42506944 52.34509431 -73.25 31.375 C-74.4744869 29.56580093 -75.72508294 27.77402253 -77 26 C-77.64582031 25.09507812 -78.29164063 24.19015625 -78.95703125 23.2578125 C-85.95620331 14.0900658 -94.99157089 6.71910235 -105 1 C-79.71795361 -15.85469759 -27.29532976 -6.24697238 0 0 Z " fill="#F18F38" transform="translate(559,215)"/>
<path d="M0 0 C3.71368887 1.23789629 4.77354181 2.85224877 7 6 C7 6.66 7 7.32 7 8 C7.66 8 8.32 8 9 8 C10.50083383 10.35076841 11.10112375 11.47251668 10.56640625 14.26171875 C7.90071677 20.7029373 4.55647343 25.74391058 0 31 C-0.71671875 31.83789062 -1.4334375 32.67578125 -2.171875 33.5390625 C-6.79700337 38.81808832 -11.63160623 43.49690654 -17 48 C-18.14732727 48.99567696 -19.29301719 49.99324227 -20.4375 50.9921875 C-21.68738224 52.07826053 -22.93738306 53.16419712 -24.1875 54.25 C-24.78199951 54.76997559 -25.37649902 55.28995117 -25.98901367 55.82568359 C-29.18343783 58.58167494 -32.31605984 60.90945956 -36 63 C-36.969375 63.7425 -37.93875 64.485 -38.9375 65.25 C-43.95140061 68.8669391 -49.55036558 71.4222969 -55.10742188 74.08398438 C-56.95300797 74.97725566 -58.78149189 75.89926601 -60.609375 76.828125 C-70.09191628 81.56108547 -79.71516601 84.51712677 -90 87 C-91.82724609 87.44666016 -91.82724609 87.44666016 -93.69140625 87.90234375 C-97.11694816 88.68565879 -100.54336435 89.36865102 -104 90 C-105.63195312 90.309375 -105.63195312 90.309375 -107.296875 90.625 C-156.35930007 98.33787032 -203.20033168 84.64843405 -243.18505859 56.27758789 C-244.77269598 55.16000564 -246.38454 54.07697333 -248 53 C-252.62177823 43.19722482 -254.19492284 31.75324345 -254 21 C-250.99112173 22.46426892 -248.10070581 24.07141142 -245.2109375 25.7578125 C-196.17975003 54.13357884 -139.85780744 65.10098514 -84.18164062 50.89697266 C-68.43876018 46.45871738 -53.02427701 40.4539703 -39 32 C-38.08347656 31.4740625 -37.16695312 30.948125 -36.22265625 30.40625 C-22.64334654 22.27062832 -10.86477771 11.42036294 0 0 Z " fill="#004453" transform="translate(632,614)"/>
<path d="M0 0 C11.79040616 6.4443169 17.1345767 22.26107664 20.71630859 34.43457031 C21.84848764 38.53625724 22.90112638 42.65451226 23.921875 46.78515625 C24.79425432 50.25489081 25.68232655 53.66675491 27 57 C28.97922654 58.05901922 28.97922654 58.05901922 31 58 C33.23346538 55.76653462 32.18658341 51.0884456 32.18945312 48.07202148 C32.13729268 43.05098617 31.47629009 38.36171333 30.45703125 33.44140625 C29.65902073 29.17852956 28.94310994 24.83565115 31.1875 20.9375 C33 20 33 20 35.4375 19.875 C39.30586446 21.57330635 40.44124948 24.26950718 42 28 C50.16373373 50.13118376 51.28334818 73.44744896 41.3125 95.25 C35.68199683 105.73681215 27.7813994 114.22826196 18 121 C17.34 121 16.68 121 16 121 C16.144375 121.63164063 16.28875 122.26328125 16.4375 122.9140625 C18.42371794 132.48652953 20.50219144 143.74423635 15.1328125 152.51171875 C12.69903378 155.70920044 11.12421829 156.8289233 7.125 157.4375 C3.03211699 156.86449638 1.1521718 155.6826994 -2 153 C-4.60934805 149.53561134 -6.61231456 145.94982932 -8.25 141.9375 C-11.76023741 136.04531577 -17.9457325 132.64195404 -23.6875 129.125 C-29.56304143 125.27302791 -32.67540452 120.13086205 -35.375 113.75 C-37.23408179 102.59550927 -35.48764179 94.25909653 -31.41015625 83.9453125 C-26.85050458 71.99112057 -28.69190218 58.85798582 -31.34375 46.69140625 C-32.94559099 37.68105066 -32.94559099 37.68105066 -30.875 34 C-29 33 -29 33 -26.3125 32.875 C-19.56666079 35.16603973 -14.61810296 40.54836639 -11.0859375 46.62890625 C-9.26881668 50.59650459 -8.11026902 54.74143968 -6.91015625 58.9296875 C-5.65398855 63.16723175 -3.97580345 67.0483931 -2 71 C-0.00045254 71.04254356 2.00041636 71.04080783 4 71 C5.74437052 69.25562948 5.37856582 67.07671746 5.5 64.6875 C5.37481251 50.47871973 -1.08113355 35.88653389 -10 25 C-11.06927734 23.95779297 -11.06927734 23.95779297 -12.16015625 22.89453125 C-15.56571432 19.3877464 -15.90596281 15.0908314 -16.3125 10.375 C-15.97147328 6.69191141 -15.24258225 4.90705106 -13 2 C-8.70474091 -0.86350606 -5.03383054 -0.94992047 0 0 Z " fill="#FCFDFC" transform="translate(653,454)"/>
<path d="M0 0 C2.85747835 1.38791806 3.64586733 2.24265089 5.1875 5.0625 C5.70488511 8.35534592 5.71027676 11.6092093 5.6875 14.9375 C5.68177979 15.90623047 5.67605957 16.87496094 5.67016602 17.87304688 C5.20661851 37.21405929 0.23225553 56.81142912 -13.5859375 70.953125 C-14.32070313 71.64921875 -15.05546875 72.3453125 -15.8125 73.0625 C-16.40289063 73.63484375 -16.99328125 74.2071875 -17.6015625 74.796875 C-27.81493859 83.52548716 -41.25680238 86.27194016 -54.3203125 85.578125 C-67.77249212 84.3402292 -79.45413403 76.75983103 -88.00390625 66.55859375 C-97.91482772 52.88023777 -101.98276026 36.15713672 -102.125 19.5625 C-102.15400391 18.43457031 -102.18300781 17.30664062 -102.21289062 16.14453125 C-102.27577742 7.96924726 -102.27577742 7.96924726 -100.16796875 3.84375 C-97.19940213 1.5988638 -95.54458392 1.01584895 -91.8125 1.0625 C-88.875 2.5390625 -88.875 2.5390625 -85.8125 4.6875 C-70.17698665 15.14550915 -51.99480652 17.22318574 -33.56347656 14.76220703 C-29.7747874 13.98486229 -26.32106038 12.66401984 -22.8125 11.0625 C-21.25015625 10.35673828 -21.25015625 10.35673828 -19.65625 9.63671875 C-15.0111171 7.41188406 -10.64428136 5.00316721 -6.375 2.125 C-3.86683184 0.5118628 -3.0672103 0.06816023 0 0 Z " fill="#013745" transform="translate(554.8125,380.9375)"/>
<path d="M0 0 C8.47480106 5.61106334 14.83080993 13.96088969 17 24 C17.89637585 36.69012099 17.42170448 48.43754453 9.25 58.9375 C3.3760189 65.02342887 -3.80032668 69.47017547 -12.296875 70.3359375 C-24.32493111 70.47200148 -31.93648364 67.9953549 -40.73046875 59.64453125 C-49.36929668 49.57828941 -50.73760335 38.75798161 -50.17919922 26.04248047 C-49.37524644 16.87917124 -43.55758304 9.40290552 -37.125 3.25 C-25.25322852 -5.29767546 -13.43841486 -6.03423968 0 0 Z " fill="#013642" transform="translate(604,262)"/>
<path d="M0 0 C8.55470538 8.95671221 11.351672 17.8430682 11.16455078 29.99291992 C10.72711468 40.11744911 7.71125794 48.57630741 0.640625 55.98828125 C-7.45188378 63.24022394 -15.41184206 65.86523656 -26.27734375 65.45703125 C-34.53663241 64.76281133 -41.08620652 60.70156244 -46.796875 54.86328125 C-54.6305909 45.25065904 -57.16804828 34.0884296 -56.359375 21.98828125 C-54.70938549 12.4798671 -49.95704135 3.22896426 -42.28125 -2.765625 C-28.49756951 -11.70260483 -12.61858512 -10.75922407 0 0 Z " fill="#013642" transform="translate(446.359375,267.01171875)"/>
<path d="M0 0 C0.66 0 1.32 0 2 0 C3.28788243 1.47144268 4.50570327 3.0045715 5.6875 4.5625 C10.03999977 10.12708831 14.34107471 15.48966827 20.4375 19.1875 C21.7059375 20.0846875 21.7059375 20.0846875 23 21 C23 22.32 23 23.64 23 25 C20.1875 27.125 20.1875 27.125 17 29 C12.43637432 32.04241712 12.11462704 35.77753396 11 41 C4.97168585 77.39315579 9.83351607 115.11613572 31.48046875 145.65625 C34.40593142 149.62450765 37.60996282 153.29662742 41 156.875 C42.70740551 158.68911836 44.22312902 160.53688017 45.75 162.5 C52.08695029 169.95211193 61.07607296 176.15046284 70 180 C70 180.66 70 181.32 70 182 C55.3923465 177.59885117 34.60516671 168.86609585 25.83203125 155.76171875 C24.67383376 153.54503614 23.55593974 151.30670956 22.484375 149.046875 C18.08678094 140.02023455 10.84954788 135.32085465 2 131 C0.99573975 130.70029297 0.99573975 130.70029297 -0.02880859 130.39453125 C-4.25729731 129.12979057 -5.66227771 128.51873171 -8.171875 124.6640625 C-8.7290656 123.3302979 -9.25405118 121.98272757 -9.75 120.625 C-10.17466553 119.56285278 -10.17466553 119.56285278 -10.60791016 118.47924805 C-26.01637554 79.1290086 -14.62605359 38.04180286 0 0 Z " fill="#D06F28" transform="translate(345,342)"/>
<path d="M0 0 C7.01849253 2.81803109 13.29149972 8.68355381 16.75 15.375 C20.58746279 25.2189263 20.56614062 35.81039456 16.44140625 45.59765625 C11.7492012 54.82127429 4.38096011 61.2684974 -5.515625 64.59375 C-14.90311492 66.50956427 -23.31634262 65.46488314 -31.4375 60.4375 C-38.04040089 53.83459911 -41.9916581 46.4985989 -42.19311523 37.04882812 C-42.16140497 24.7728185 -39.77349552 15.04092936 -30.8125 6.0625 C-21.46355799 -1.21741386 -11.66837897 -3.12695767 0 0 Z " fill="#FCFDFD" transform="translate(339.8125,486.9375)"/>
<path d="M0 0 C2.65103719 2.6364175 5.28270099 5.28625476 7.875 7.98046875 C16.54396079 16.91981459 25.54489705 24.75088747 36.25 31.1875 C38.4140625 32.59765625 38.4140625 32.59765625 40 34 C40.625 37.125 40.625 37.125 41 41 C53.35959489 67.99269385 76.91020354 88.83429259 104 100 C101.85043794 101.30905914 100.56248794 102.0610194 98.01953125 101.78515625 C95.32525682 100.9029602 92.6593781 99.98410155 90 99 C89.37867188 98.77135254 88.75734375 98.54270508 88.1171875 98.30712891 C71.50688194 92.09830571 57.55066899 83.36986464 44 72 C43.03191406 71.19820312 42.06382812 70.39640625 41.06640625 69.5703125 C20.99324891 52.2020487 7.15420162 27.34926248 0 2 C0 1.34 0 0.68 0 0 Z " fill="#CE6D27" transform="translate(353,657)"/>
<path d="M0 0 C5.19756349 3.73884676 10.02731008 7.72044688 14.7265625 12.0703125 C16.99470241 14.15334561 16.99470241 14.15334561 20.10546875 15.53564453 C23 18 23 18 23.5274353 19.94155884 C23.69578569 22.43446145 23.67419543 24.86226389 23.5859375 27.359375 C23.57744781 28.26375305 23.56895813 29.1681311 23.56021118 30.09991455 C23.52666085 32.98449557 23.45138076 35.86626621 23.375 38.75 C23.34490241 40.70699084 23.31752624 42.66402555 23.29296875 44.62109375 C23.22686431 49.41514302 23.12333286 54.20709531 23 59 C18.9024416 59 17.30854775 56.87124336 14.5 54.1875 C13.97535156 53.69556152 13.45070313 53.20362305 12.91015625 52.69677734 C7.49348593 47.58698672 2.12061706 42.40696736 -3 37 C-3.763125 36.21367188 -4.52625 35.42734375 -5.3125 34.6171875 C-8.23968811 30.07733557 -7.19521142 25.68796956 -6.23046875 20.625 C-5.89055498 19.08160776 -5.54276912 17.53993014 -5.1875 16 C-4.9390332 14.84757813 -4.9390332 14.84757813 -4.68554688 13.671875 C-3.59349402 8.82563291 -2.09151102 4.50663692 0 0 Z " fill="#CE6D28" transform="translate(356,557)"/>
<path d="M0 0 C3.375 0.9375 3.375 0.9375 4.875 2.75 C5.45957154 5.3075005 5.25172559 6.4798703 4.375 8.9375 C2.921875 10.5078125 2.921875 10.5078125 1.125 12.0625 C-5.70882753 18.67180753 -8.0857413 26.05241198 -8.97265625 35.37109375 C-9.625 37.9375 -9.625 37.9375 -11.48828125 39.765625 C-14.35642482 41.33864707 -16.40494565 41.28750591 -19.625 40.9375 C-22.39268961 38.16981039 -21.98985581 36.43400823 -22.0625 32.5625 C-21.84968662 20.99963976 -17.65849466 13.28134445 -9.80859375 4.99609375 C-4.42814859 -0.07634739 -4.42814859 -0.07634739 0 0 Z " fill="#03313D" transform="translate(333.625,173.0625)"/>
<path d="M0 0 C2.4375 1.125 2.4375 1.125 4 3 C4.5 5.9375 4.5 5.9375 4 9 C1.21832883 12.2463587 -1.94266093 14.38907219 -5.5625 16.625 C-6.51253906 17.21539062 -7.46257812 17.80578125 -8.44140625 18.4140625 C-9.28574219 18.93742187 -10.13007813 19.46078125 -11 20 C-11.99 20.66 -12.98 21.32 -14 22 C-17.0625 22.3125 -17.0625 22.3125 -20 22 C-22 19 -22 19 -22.0625 15.8125 C-20.29913979 9.48514865 -15.99654485 5.01928098 -10.5 1.5 C-6.60831776 -0.16786382 -4.18718702 -0.5530247 0 0 Z " fill="#053441" transform="translate(369,154)"/>
<path d="M0 0 C2.69990662 1.79993774 4.5418865 3.083773 6 6 C6.43023798 9.87214182 6.31669086 11.52496371 4.125 14.8125 C1.65678697 17.35330753 0.7363048 17.8995948 -2.75 18.375 C-7.24132722 17.85676994 -9.01304516 16.34254471 -12 13 C-12.77152986 8.67943279 -12.52747866 6.80880061 -10.125 3.125 C-6.79974618 -0.20025382 -4.65430991 -0.45630489 0 0 Z " fill="#F9FBFA" transform="translate(437,272)"/>
<path d="M0 0 C2.92910116 3.07198415 3.97561741 4.80525304 4.0625 9.0625 C2.70180346 12.82442574 1.1886449 14.59080163 -2 17 C-5.91147941 17.55878277 -8.71099688 17.23182354 -12 15 C-14.44521115 11.33218328 -14.72237759 8.26546767 -14 4 C-10.10449385 -1.06415799 -6.07016208 -1.93957842 0 0 Z " fill="#F8FAF9" transform="translate(602,273)"/>
<path d="M0 0 C5.94 0 11.88 0 18 0 C17.01 7.59 16.02 15.18 15 23 C7.75865543 19.37932772 3.77511361 13.39733542 0.62890625 6.078125 C0 4 0 4 0 0 Z " fill="#F9FBFA" transform="translate(315,568)"/>
<path d="M0 0 C2.65103719 2.6364175 5.28270099 5.28625476 7.875 7.98046875 C15.09613277 15.42560213 22.60321552 21.91995956 31 28 C31.78246094 28.56976562 32.56492187 29.13953125 33.37109375 29.7265625 C34.9044989 30.83110786 36.4501224 31.91869005 38 33 C37.505 33.99 37.505 33.99 37 35 C36.13117188 34.32453125 35.26234375 33.6490625 34.3671875 32.953125 C33.20320632 32.05197828 32.03913923 31.15094253 30.875 30.25 C30.30523437 29.8065625 29.73546875 29.363125 29.1484375 28.90625 C25.52564368 26.10681841 21.83812854 23.49653346 18 21 C18 21.66 18 22.32 18 23 C17.34 23 16.68 23 16 23 C16 23.99 16 24.98 16 26 C16.66 26.66 17.32 27.32 18 28 C16 30 16 30 14 31 C12.875 26.25 12.875 26.25 14 24 C13.34 24.33 12.68 24.66 12 25 C12.33 26.98 12.66 28.96 13 31 C5.85592212 25.04306859 2.46698934 10.6489744 0 2 C0 1.34 0 0.68 0 0 Z " fill="#D47026" transform="translate(353,657)"/>
<path d="M0 0 C0.66 0 1.32 0 2 0 C3.28788243 1.47144268 4.50570327 3.0045715 5.6875 4.5625 C9.18030506 9.05142497 12.86691827 13.09940411 17 17 C14 17 14 17 12.28125 15.5390625 C11.6934375 14.90742188 11.105625 14.27578125 10.5 13.625 C8.36503989 11.34958199 6.62878656 9.75252437 4 8 C3.01 8 2.02 8 1 8 C0.7525 8.9075 0.505 9.815 0.25 10.75 C-1.03981342 14.10351489 -2.31971042 15.67708236 -5 18 C-4.42934122 11.58008874 -2.32655091 5.98410537 0 0 Z " fill="#DD7624" transform="translate(345,342)"/>
<path d="M0 0 C4.63720719 3.27530896 8.68542782 6.30435607 12 11 C10.35 11.33 8.7 11.66 7 12 C7 11.34 7 10.68 7 10 C6.236875 9.87625 5.47375 9.7525 4.6875 9.625 C2 9 2 9 -1 7 C-1.33 8.65 -1.66 10.3 -2 12 C-2.33 12 -2.66 12 -3 12 C-2.19642857 3.96428571 -2.19642857 3.96428571 0 0 Z " fill="#DA7325" transform="translate(356,557)"/>
<path d="M0 0 C1.81274414 0.00676758 1.81274414 0.00676758 3.66210938 0.01367188 C6.62895789 0.02539855 9.5957027 0.04181104 12.5625 0.0625 C12.5625 0.3925 12.5625 0.7225 12.5625 1.0625 C7.9425 1.3925 3.3225 1.7225 -1.4375 2.0625 C-1.4375 3.0525 -1.4375 4.0425 -1.4375 5.0625 C-1.7675 6.0525 -2.0975 7.0425 -2.4375 8.0625 C-3.0975 8.0625 -3.7575 8.0625 -4.4375 8.0625 C-4.4375 7.4025 -4.4375 6.7425 -4.4375 6.0625 C-5.0975 6.0625 -5.7575 6.0625 -6.4375 6.0625 C-6.7675 5.0725 -7.0975 4.0825 -7.4375 3.0625 C-11.7275 2.7325 -16.0175 2.4025 -20.4375 2.0625 C-20.4375 1.7325 -20.4375 1.4025 -20.4375 1.0625 C-13.64086964 -0.20500669 -6.89451316 -0.04889726 0 0 Z " fill="#F59A34" transform="translate(502.4375,208.9375)"/>
<path d="M0 0 C0.33 0 0.66 0 1 0 C1.02897435 4.27081914 1.04678996 8.54161309 1.0625 12.8125 C1.07087891 14.02744141 1.07925781 15.24238281 1.08789062 16.49414062 C1.09111328 17.65751953 1.09433594 18.82089844 1.09765625 20.01953125 C1.10289307 21.09307861 1.10812988 22.16662598 1.11352539 23.27270508 C1 26 1 26 0 29 C-0.66 29 -1.32 29 -2 29 C-4.74375671 26.04518508 -5 25.22528092 -5 21 C-3.68 20.67 -2.36 20.34 -1 20 C-0.67 13.4 -0.34 6.8 0 0 Z " fill="#F49E34" transform="translate(676,424)"/>
<path d="M0 0 C5.33333333 5.33333333 10.66666667 10.66666667 16 16 C13 16 13 16 10.5 13.5625 C9.675 12.716875 8.85 11.87125 8 11 C7.01 10.67 6.02 10.34 5 10 C5.33 11.98 5.66 13.96 6 16 C3.50063756 13.50063756 2.96276247 11.35191992 1.875 8 C1.52179688 6.9275 1.16859375 5.855 0.8046875 4.75 C0 2 0 2 0 0 Z " fill="#E57A22" transform="translate(353,657)"/>
<path d="M0 0 C0.33 0.99 0.66 1.98 1 3 C2.32 2.67 3.64 2.34 5 2 C5 2.99 5 3.98 5 5 C5.85851562 5.27585937 6.71703125 5.55171875 7.6015625 5.8359375 C10.92578037 6.97457764 14.13854627 8.25849731 17.375 9.625 C18.43460937 10.07101562 19.49421875 10.51703125 20.5859375 10.9765625 C21.38257813 11.31429687 22.17921875 11.65203125 23 12 C19.66946717 13.11017761 19.26548635 12.97879491 16.19921875 11.70703125 C15.46896484 11.40603516 14.73871094 11.10503906 13.98632812 10.79492188 C13.22771484 10.47072266 12.46910156 10.14652344 11.6875 9.8125 C10.94048828 9.50763672 10.19347656 9.20277344 9.42382812 8.88867188 C4.90803604 6.99751048 0.97895176 4.85295269 -3 2 C-2.01 1.34 -1.02 0.68 0 0 Z " fill="#E47824" transform="translate(423,743)"/>
<path d="M0 0 C2.375 2 2.375 2 4 4 C3.01 4 2.02 4 1 4 C1 4.66 1 5.32 1 6 C1.66 6.33 2.32 6.66 3 7 C2.34 7.66 1.68 8.32 1 9 C-1.475 8.01 -1.475 8.01 -4 7 C-3.01 6.01 -2.02 5.02 -1 4 C-3.97 3.67 -6.94 3.34 -10 3 C-10 2.34 -10 1.68 -10 1 C-6.59019864 -0.04916965 -3.55615217 -0.37043252 0 0 Z " fill="#E0873C" transform="translate(480,609)"/>
<path d="M0 0 C0.66 0.99 1.32 1.98 2 3 C2.66 3.66 3.32 4.32 4 5 C-2.3552245 6.5197276 -6.91708727 5.1663492 -13 3 C-13 2.67 -13 2.34 -13 2 C-11.783125 2.04125 -10.56625 2.0825 -9.3125 2.125 C-5.78105873 2.13754508 -3.19996434 1.59998217 0 0 Z " fill="#E2863A" transform="translate(466,756)"/>
<path d="M0 0 C3.42117255 1.02635177 6.58365496 2.24034219 9.75 3.875 C14.36765837 6.25542079 19.15609657 8.13390606 24 10 C24 10.66 24 11.32 24 12 C15.33263693 9.56705598 7.82828494 5.34217123 0 1 C0 0.67 0 0.34 0 0 Z " fill="#E47A24" transform="translate(391,512)"/>
<path d="M0 0 C3.27725968 0.05958654 3.94187595 0.22850076 6.625 2.375 C7.12 3.035 7.615 3.695 8.125 4.375 C7.795 5.365 7.465 6.355 7.125 7.375 C6.7228125 6.4159375 6.7228125 6.4159375 6.3125 5.4375 C5.23832248 3.04368314 5.23832248 3.04368314 2.125 2.375 C-1.62637087 3.47296221 -2.64767549 4.03401324 -4.875 7.375 C-5.535 7.375 -6.195 7.375 -6.875 7.375 C-6.05760147 2.19814266 -5.60795739 0.54270555 0 0 Z " fill="#07232D" transform="translate(235.875,452.625)"/>
<path d="M0 0 C2.00720923 0.28674418 4.0085944 0.61866701 6 1 C2.25 6.875 2.25 6.875 0 8 C-0.66 7.34 -1.32 6.68 -2 6 C-1.44444444 1.44444444 -1.44444444 1.44444444 0 0 Z " fill="#E28D3C" transform="translate(620,599)"/>
<path d="M0 0 C0 0.33 0 0.66 0 1 C-2.64 1.33 -5.28 1.66 -8 2 C-8.33 2.99 -8.66 3.98 -9 5 C-11.375 6.75 -11.375 6.75 -14 8 C-14.99 7.67 -15.98 7.34 -17 7 C-15.70982586 6.01886757 -14.41780894 5.04015801 -13.125 4.0625 C-12.04605469 3.24458984 -12.04605469 3.24458984 -10.9453125 2.41015625 C-7.22218988 -0.28873384 -4.56086138 -0.0844604 0 0 Z " fill="#07232C" transform="translate(369,154)"/>
<path d="M0 0 C3.7102866 1.2367622 4.60016234 3.00020293 7 6 C7.99 6.33 8.98 6.66 10 7 C11.35368596 8.31266518 12.68799596 9.64567325 14 11 C14.66 11.33 15.32 11.66 16 12 C15.67 12.66 15.34 13.32 15 14 C3.84110309 6.48128693 3.84110309 6.48128693 0 2 C0 1.34 0 0.68 0 0 Z " fill="#112C47" transform="translate(468,447)"/>
<path d="M0 0 C1.32246154 3.96738463 0.33297889 5.62369684 -1.125 9.5 C-1.54007813 10.6446875 -1.95515625 11.789375 -2.3828125 12.96875 C-4.17858095 16.33473145 -5.59726301 17.39601624 -9 19 C-7.39369175 14.75707468 -5.4231838 10.72974893 -3.375 6.6875 C-3.05015625 6.04232422 -2.7253125 5.39714844 -2.390625 4.73242188 C-1.59558044 3.15402459 -0.79804366 1.57688306 0 0 Z " fill="#F29E36" transform="translate(555,428)"/>
<path d="M0 0 C1 2 1 2 0.58203125 3.875 C-1.51579094 9.66797093 -1.51579094 9.66797093 -4.1875 11.5 C-4.785625 11.665 -5.38375 11.83 -6 12 C-6 7.61899946 -4.22914863 4.3657207 -1.3125 1.125 C-0.879375 0.75375 -0.44625 0.3825 0 0 Z " fill="#E18F3A" transform="translate(635,661)"/>
<path d="M0 0 C0.99 0.33 1.98 0.66 3 1 C3.99 1 4.98 1 6 1 C4.61019248 2.13243576 3.21285323 3.25563119 1.8125 4.375 C1.03519531 5.00148438 0.25789062 5.62796875 -0.54296875 6.2734375 C-2.96879382 7.97807134 -5.21309045 9.01987906 -8 10 C-8 9.34 -8 8.68 -8 8 C-6.865625 7.4225 -5.73125 6.845 -4.5625 6.25 C-1.62689703 4.64507365 -1.62689703 4.64507365 -0.0625 1.75 C-0.041875 1.1725 -0.02125 0.595 0 0 Z " fill="#0E2E46" transform="translate(642,360)"/>
<path d="M0 0 C0 0.99 0 1.98 0 3 C-2.08203125 4.82421875 -2.08203125 4.82421875 -4.8125 6.6875 C-5.70582031 7.31011719 -6.59914063 7.93273437 -7.51953125 8.57421875 C-10 10 -10 10 -13 10 C-13 9.34 -13 8.68 -13 8 C-10.85718967 6.53417645 -8.73293604 5.18876486 -6.5 3.875 C-5.87996094 3.50246094 -5.25992188 3.12992187 -4.62109375 2.74609375 C-3.08462162 1.82421047 -1.54279325 0.91126525 0 0 Z " fill="#0A2C48" transform="translate(602,507)"/>
<path d="M0 0 C3.92117276 1.30705759 6.57631657 2.58888999 9 6 C9.33281767 8.75763215 9.18631124 11.20533136 9 14 C8.67 14 8.34 14 8 14 C7.67 11.69 7.34 9.38 7 7 C6.01 6.67 5.02 6.34 4 6 C4 5.34 4 4.68 4 4 C2.70766393 2.62689293 1.37562854 1.28965176 0 0 Z " fill="#DA7628" transform="translate(370,570)"/>
<path d="M0 0 C0.66 0.66 1.32 1.32 2 2 C3.64991582 2.70710678 5.31562256 3.37943989 7 4 C6.01 4.495 6.01 4.495 5 5 C6.32 6.65 7.64 8.3 9 10 C8.67 10.66 8.34 11.32 8 12 C6.65772954 10.57084149 5.32642904 9.13137328 4 7.6875 C3.2575 6.88699219 2.515 6.08648438 1.75 5.26171875 C0 3 0 3 0 0 Z " fill="#E27723" transform="translate(349,586)"/>
<path d="M0 0 C1.14926266 0.95421808 2.29430541 1.91352045 3.4375 2.875 C4.07558594 3.40867187 4.71367188 3.94234375 5.37109375 4.4921875 C7 6 7 6 8 8 C6.02 8.99 6.02 8.99 4 10 C4 9.01 4 8.02 4 7 C3.34 7 2.68 7 2 7 C1.855625 6.401875 1.71125 5.80375 1.5625 5.1875 C1.1127561 3.43849596 0.57107659 1.71322977 0 0 Z " fill="#F99B37" transform="translate(537,351)"/>
<path d="M0 0 C-1 2 -2 4 -3 6 C-3.66 6 -4.32 6 -5 6 C-5.33 7.32 -5.66 8.64 -6 10 C-6.36567164 3.539801 -6.36567164 3.539801 -4.6875 1.0625 C-3 0 -3 0 0 0 Z " fill="#06242F" transform="translate(422,114)"/>
<path d="M0 0 C0.33 0 0.66 0 1 0 C1 3.3 1 6.6 1 10 C-1 8 -1 8 -3 5 C-3 3.68 -3 2.36 -3 1 C-2.34 1.33 -1.68 1.66 -1 2 C-0.67 1.34 -0.34 0.68 0 0 Z " fill="#F79B36" transform="translate(620,460)"/>
<path d="M0 0 C-0.33 0.66 -0.66 1.32 -1 2 C-4.63 1.67 -8.26 1.34 -12 1 C-12 0.67 -12 0.34 -12 0 C-7.66726186 -0.92844389 -4.33273814 -0.92844389 0 0 Z " fill="#02232F" transform="translate(337,484)"/>
<path d="M0 0 C0.99 0.33 1.98 0.66 3 1 C-1.75 5.875 -1.75 5.875 -4 7 C-3.43628586 3.73045798 -2.50037734 2.17424117 0 0 Z " fill="#072833" transform="translate(491,79)"/>
<path d="M0 0 C0 3 0 3 -1.125 4.625 C-3.64613093 6.47382935 -5.93350175 6.65927797 -9 7 C-6.03716687 4.61327331 -3.05729491 2.2646629 0 0 Z " fill="#102F43" transform="translate(600,623)"/>
<path d="M0 0 C0.33 0.99 0.66 1.98 1 3 C-2.96 2.67 -6.92 2.34 -11 2 C-11 1.67 -11 1.34 -11 1 C-3.375 0 -3.375 0 0 0 Z " fill="#D88C3F" transform="translate(539,607)"/>
<path d="M0 0 C1.32 0 2.64 0 4 0 C3.67 1.98 3.34 3.96 3 6 C2.01 5.67 1.02 5.34 0 5 C0 3.35 0 1.7 0 0 Z " fill="#004554" transform="translate(469,556)"/>
<path d="M0 0 C1 3 1 3 -0.125 5.5625 C-2.23794891 8.30933359 -3.72518425 9.02640613 -7 10 C-6.57847656 9.44570313 -6.15695312 8.89140625 -5.72265625 8.3203125 C-5.17480469 7.59585938 -4.62695312 6.87140625 -4.0625 6.125 C-3.51722656 5.40570312 -2.97195313 4.68640625 -2.41015625 3.9453125 C-0.96035376 2.05642921 -0.96035376 2.05642921 0 0 Z " fill="#051B26" transform="translate(783,507)"/>
<path d="M0 0 C1.13732426 3.40401948 0.83989957 5.77456664 0.0625 9.25 C-0.13214844 10.14203125 -0.32679688 11.0340625 -0.52734375 11.953125 C-0.68332031 12.62859375 -0.83929687 13.3040625 -1 14 C-1.33 14 -1.66 14 -2 14 C-3.25 6.375 -3.25 6.375 -1 3 C-0.67 2.01 -0.34 1.02 0 0 Z " fill="#F39E35" transform="translate(517,266)"/>
<path d="M0 0 C0 3.61029169 -0.96092582 6.55806676 -2 10 C-2.99 10 -3.98 10 -5 10 C-3.84414715 6.08788267 -2.64465038 3.1254959 0 0 Z " fill="#041F29" transform="translate(346,244)"/>
<path d="M0 0 C7.56634615 -0.37211538 7.56634615 -0.37211538 9.76171875 1.51171875 C10.17035156 2.00285156 10.57898438 2.49398437 11 3 C9.54077307 2.88590407 8.08259402 2.75834456 6.625 2.625 C5.40683594 2.52058594 5.40683594 2.52058594 4.1640625 2.4140625 C2 2 2 2 0 0 Z " fill="#EA7F2A" transform="translate(453,758)"/>
<path d="M0 0 C0.66 0.33 1.32 0.66 2 1 C-0.31 2.65 -2.62 4.3 -5 6 C-5.66 5.67 -6.32 5.34 -7 5 C-6.34 3.68 -5.68 2.36 -5 1 C-4.34 1.33 -3.68 1.66 -3 2 C-2.01 1.34 -1.02 0.68 0 0 Z " fill="#F2993C" transform="translate(579,738)"/>
<path d="M0 0 C0.33 0 0.66 0 1 0 C1.144375 0.78375 1.28875 1.5675 1.4375 2.375 C1.87798925 4.96421018 1.87798925 4.96421018 3 7 C3.66 7.33 4.32 7.66 5 8 C3.02 8.99 3.02 8.99 1 10 C-0.1577506 6.52674819 -0.06866652 3.63932552 0 0 Z " fill="#C66725" transform="translate(330,436)"/>
<path d="M0 0 C2.64 0.33 5.28 0.66 8 1 C8 1.33 8 1.66 8 2 C3.71 2.66 -0.58 3.32 -5 4 C-4.34 3.34 -3.68 2.68 -3 2 C-2.01 2 -1.02 2 0 2 C0 1.34 0 0.68 0 0 Z " fill="#021922" transform="translate(189,309)"/>
<path d="M0 0 C0 0.99 0 1.98 0 3 C-1.98 3 -3.96 3 -6 3 C-6.33 2.01 -6.66 1.02 -7 0 C-3.98968256 -0.93423645 -3.13349732 -1.04449911 0 0 Z " fill="#E68F36" transform="translate(464,214)"/>
<path d="M0 0 C0.66 0.33 1.32 0.66 2 1 C2 2.65 2 4.3 2 6 C0.35 5.67 -1.3 5.34 -3 5 C-2.01 3.35 -1.02 1.7 0 0 Z " fill="#E0883C" transform="translate(526,648)"/>
<path d="M0 0 C1.125 3.75 1.125 3.75 0 6 C-0.66 6 -1.32 6 -2 6 C-2.33 5.34 -2.66 4.68 -3 4 C-3.66 3.67 -4.32 3.34 -5 3 C-3.35 2.01 -1.7 1.02 0 0 Z " fill="#004251" transform="translate(596,532)"/>
<path d="M0 0 C0.804375 0.12375 1.60875 0.2475 2.4375 0.375 C3.0975 1.365 3.7575 2.355 4.4375 3.375 C1.1375 3.375 -2.1625 3.375 -5.5625 3.375 C-2.5625 0.375 -2.5625 0.375 0 0 Z " fill="#10424E" transform="translate(793.5625,281.625)"/>
<path d="M0 0 C0.99 0.66 1.98 1.32 3 2 C2.67 3.65 2.34 5.3 2 7 C0.68 5.68 -0.64 4.36 -2 3 C-1.34 2.01 -0.68 1.02 0 0 Z " fill="#004351" transform="translate(468,564)"/>
<path d="M0 0 C0.33 0.99 0.66 1.98 1 3 C-0.175625 3.928125 -0.175625 3.928125 -1.375 4.875 C-3.96837647 6.89858661 -3.96837647 6.89858661 -6 9 C-5.52797514 4.75177626 -3.03344482 2.80010291 0 0 Z " fill="#061F2A" transform="translate(156,430)"/>
<path d="M0 0 C2.0625 0.4375 2.0625 0.4375 4 1 C3.071875 2.1446875 3.071875 2.1446875 2.125 3.3125 C-0.05597052 5.99625809 -0.05597052 5.99625809 -2 9 C-1.125 1.125 -1.125 1.125 0 0 Z " fill="#F79E36" transform="translate(454,382)"/>
<path d="M0 0 C2.875 0.1875 2.875 0.1875 6 1 C7.375 3.5625 7.375 3.5625 8 6 C6.66402348 5.19185349 5.331275 4.37836819 4 3.5625 C3.2575 3.11003906 2.515 2.65757812 1.75 2.19140625 C1.1725 1.79824219 0.595 1.40507812 0 1 C0 0.67 0 0.34 0 0 Z " fill="#102E45" transform="translate(551,362)"/>
<path d="M0 0 C0.99 0.33 1.98 0.66 3 1 C1.37660195 2.70884005 -0.29319053 4.37446717 -2 6 C-2.66 6 -3.32 6 -4 6 C-2.84826645 3.53199953 -1.95216435 1.95216435 0 0 Z " fill="#032632" transform="translate(682,343)"/>
</svg>
