<svg width="19" height="24" viewBox="0 0 19 24" fill="none" xmlns="http://www.w3.org/2000/svg">
<path d="M9.55349 0C5.96716 0 3.09809 2.87719 3.09809 6.47369V9.35088C1.87874 9.35088 0.946289 10.286 0.946289 11.5088V20.8597C0.946289 22.0825 1.87874 23.0176 3.09809 23.0176H16.0089C17.2282 23.0176 18.1607 22.0825 18.1607 20.8597V11.5088C18.1607 10.286 17.2282 9.35088 16.0089 9.35088V6.47369C16.0089 2.87719 13.1398 0 9.55349 0ZM16.7262 11.5088V20.8597C16.7262 21.2912 16.4393 21.579 16.0089 21.579H3.09809C2.66773 21.579 2.38082 21.2912 2.38082 20.8597V11.5088C2.38082 11.0772 2.66773 10.7895 3.09809 10.7895H16.0089C16.4393 10.7895 16.7262 11.0772 16.7262 11.5088ZM4.53262 9.35088V6.47369C4.53262 3.66842 6.75615 1.4386 9.55349 1.4386C12.3508 1.4386 14.5744 3.66842 14.5744 6.47369V9.35088H4.53262Z" fill="black"/>
<path d="M9.55366 12.9473C8.3343 12.9473 7.40186 13.8824 7.40186 15.1052C7.40186 16.0402 7.97567 16.8315 8.83639 17.1192V18.7017C8.83639 19.1332 9.1233 19.421 9.55366 19.421C9.98402 19.421 10.2709 19.1332 10.2709 18.7017V17.1192C11.1316 16.8315 11.7055 16.0402 11.7055 15.1052C11.7055 13.8824 10.773 12.9473 9.55366 12.9473ZM9.55366 15.8245C9.1233 15.8245 8.83639 15.5367 8.83639 15.1052C8.83639 14.6736 9.1233 14.3859 9.55366 14.3859C9.98402 14.3859 10.2709 14.6736 10.2709 15.1052C10.2709 15.5367 9.98402 15.8245 9.55366 15.8245Z" fill="black"/>
</svg>
