<?xml version="1.0" encoding="UTF-8"?>
<svg version="1.1" xmlns="http://www.w3.org/2000/svg" width="1024" height="1024">
<path d="M0 0 C337.92 0 675.84 0 1024 0 C1024 337.92 1024 675.84 1024 1024 C686.08 1024 348.16 1024 0 1024 C0 686.08 0 348.16 0 0 Z " fill="#FAFAFB" transform="translate(0,0)"/>
<path d="M0 0 C18.32256494 10.31800328 36.65274207 17.63756431 57.89526367 12.08154297 C68.13049028 8.94663928 77.47091984 3.59573665 86.75537109 -1.63232422 C87.46226074 -2.03032227 88.16915039 -2.42832031 88.89746094 -2.83837891 C91.56771641 -4.34558696 94.23584535 -5.85652955 96.90332031 -7.36865234 C108.45542282 -13.88388772 120.03956246 -19.70603945 132.75537109 -23.63232422 C133.76470703 -23.95201172 134.77404297 -24.27169922 135.81396484 -24.60107422 C155.86129416 -30.11728203 177.05799815 -26.72376952 195.09521484 -16.83544922 C200.49694059 -13.69109835 205.17497989 -9.86882023 209.75537109 -5.63232422 C210.52107422 -4.95814453 211.28677734 -4.28396484 212.07568359 -3.58935547 C227.94175297 11.14342324 236.14168931 32.49706864 244.50537109 51.99267578 C249.75509075 64.17901871 255.0890351 75.03526776 264.75537109 84.36767578 C265.34060547 84.93873047 265.92583984 85.50978516 266.52880859 86.09814453 C280.42888215 98.7909347 298.20365378 101.96807277 316.13037109 104.86767578 C347.69044141 109.99434087 347.69044141 109.99434087 361.13037109 117.18017578 C362.10985718 117.68883179 362.10985718 117.68883179 363.10913086 118.20776367 C381.82069795 128.17883231 396.1978714 143.76597289 402.98193359 164.03173828 C409.93494269 187.79202115 405.84527538 208.71829307 398.57128906 231.77978516 C390.45922924 257.50923882 384.91726755 279.86957458 396.88037109 305.49267578 C402.48215507 316.08709451 410.08992767 324.74556612 418.18505859 333.50048828 C437.56850531 355.12275256 451.9958896 379.36056698 450.89160156 409.29980469 C449.3360836 432.91134084 434.85351487 453.9453072 417.75537109 469.36767578 C407.33818339 478.22485114 396.02348213 485.94221722 384.79882812 493.72412109 C368.58170658 504.89132808 368.58170658 504.89132808 356.75537109 520.36767578 C356.07861328 521.60324219 356.07861328 521.60324219 355.38818359 522.86376953 C347.06030136 540.23405643 348.33010336 560.94410439 348.22119141 579.73925781 C347.96001245 607.79827375 342.91046816 632.57972569 323.00537109 653.49267578 C308.05978184 668.07649585 286.63816294 675.56044916 265.89990234 675.50048828 C264.78647713 675.50192337 264.78647713 675.50192337 263.65055847 675.50338745 C262.08482783 675.50406512 260.51909432 675.50223977 258.95336914 675.49804688 C256.59238135 675.49273097 254.23158711 675.49798619 251.87060547 675.50439453 C244.69960334 675.50742473 237.65763813 675.36082919 230.52026367 674.60351562 C224.59063283 674.09772989 218.64023582 674.14138227 212.69287109 674.11767578 C211.39542969 674.09705078 210.09798828 674.07642578 208.76123047 674.05517578 C191.1697237 673.98384681 180.25182835 680.35836856 167.75537109 692.36767578 C167.13919922 692.94388672 166.52302734 693.52009766 165.88818359 694.11376953 C160.11416468 699.6616172 155.25429034 705.99517016 150.26123047 712.23486328 C141.55052962 723.10444313 132.62149194 733.51739141 122.75537109 743.36767578 C122.10697266 744.06248047 121.45857422 744.75728516 120.79052734 745.47314453 C101.12962343 766.22415797 74.00900805 776.58288193 45.88037109 778.65283203 C18.20705605 779.33870083 -9.47870409 769.72800794 -30.24462891 751.36767578 C-31.07349609 750.64708984 -31.90236328 749.92650391 -32.75634766 749.18408203 C-41.57659289 741.39038908 -49.54802965 733.24113542 -56.89599609 724.04589844 C-61.37212511 718.47585664 -65.93961438 712.97909267 -70.5 707.47802734 C-71.62157005 706.12134507 -72.73940607 704.76156248 -73.85253906 703.39794922 C-84.93224208 689.8290978 -97.03260706 677.16708749 -115.24462891 674.36767578 C-120.20581468 674.10636704 -125.15291148 674.13405279 -130.11962891 674.18017578 C-131.43060547 674.18082031 -132.74158203 674.18146484 -134.09228516 674.18212891 C-139.43336922 674.20623611 -144.72160987 674.23331893 -150.02978516 674.85986328 C-157.09405763 675.66627042 -164.19849957 675.62884748 -171.30053711 675.6628418 C-172.95915288 675.67431172 -174.61773321 675.69468378 -176.27612305 675.72436523 C-191.23006374 675.99057661 -205.61712178 674.45751096 -219.18212891 667.61767578 C-219.88466797 667.27406006 -220.58720703 666.93044434 -221.31103516 666.57641602 C-227.27087259 663.55869852 -232.35320389 659.92836388 -237.24462891 655.36767578 C-238.01033203 654.69220703 -238.77603516 654.01673828 -239.56494141 653.32080078 C-258.68206867 635.56455377 -263.13135845 610.227805 -264.24462891 585.36767578 C-264.4736893 578.98819197 -264.60450671 572.60459395 -264.72143555 566.22216797 C-265.13634438 544.40839824 -266.90984311 524.19029573 -282.55712891 507.49267578 C-290.42054374 499.96286036 -299.58894385 493.9825134 -308.51220703 487.79541016 C-332.14736214 471.40698102 -353.04831255 454.02741993 -363.24462891 426.36767578 C-363.78603516 424.94648437 -363.78603516 424.94648437 -364.33837891 423.49658203 C-370.61043876 403.48987258 -365.81879182 382.27208318 -356.52856445 364.17675781 C-350.32132146 352.67849105 -342.14900328 342.92788776 -333.55322266 333.16064453 C-317.06718474 314.36723995 -303.64382788 296.13982399 -304.69775391 270.04345703 C-305.38836829 260.75025843 -308.30638807 252.15220545 -311.24462891 243.36767578 C-320.85050405 213.69653964 -328.85403212 183.41337455 -314.49462891 153.99267578 C-311.13748056 147.47641092 -307.21236574 141.78184403 -302.24462891 136.36767578 C-301.58076172 135.61228516 -300.91689453 134.85689453 -300.23291016 134.07861328 C-281.60029484 114.03391436 -254.79401534 108.81490402 -229.03417969 104.16992188 C-202.63171713 99.42598006 -202.63171713 99.42598006 -180.24462891 85.36767578 C-179.65552734 84.83142578 -179.06642578 84.29517578 -178.45947266 83.74267578 C-168.38154689 73.45814105 -163.35168985 58.45397072 -157.80712891 45.43017578 C-145.3440907 16.18721479 -130.1409154 -10.10073914 -99.24462891 -22.63232422 C-63.3247197 -35.35395873 -30.73075972 -17.41365997 0 0 Z " fill="#FAFAFB" transform="translate(469.24462890625,138.63232421875)"/>
<path d="M0 0 C18.32256494 10.31800328 36.65274207 17.63756431 57.89526367 12.08154297 C68.13049028 8.94663928 77.47091984 3.59573665 86.75537109 -1.63232422 C87.46226074 -2.03032227 88.16915039 -2.42832031 88.89746094 -2.83837891 C91.56771641 -4.34558696 94.23584535 -5.85652955 96.90332031 -7.36865234 C108.45542282 -13.88388772 120.03956246 -19.70603945 132.75537109 -23.63232422 C133.76470703 -23.95201172 134.77404297 -24.27169922 135.81396484 -24.60107422 C155.86129416 -30.11728203 177.05799815 -26.72376952 195.09521484 -16.83544922 C200.49694059 -13.69109835 205.17497989 -9.86882023 209.75537109 -5.63232422 C210.52107422 -4.95814453 211.28677734 -4.28396484 212.07568359 -3.58935547 C227.94175297 11.14342324 236.14168931 32.49706864 244.50537109 51.99267578 C249.75509075 64.17901871 255.0890351 75.03526776 264.75537109 84.36767578 C265.34060547 84.93873047 265.92583984 85.50978516 266.52880859 86.09814453 C280.42888215 98.7909347 298.20365378 101.96807277 316.13037109 104.86767578 C347.69044141 109.99434087 347.69044141 109.99434087 361.13037109 117.18017578 C362.10985718 117.68883179 362.10985718 117.68883179 363.10913086 118.20776367 C381.82069795 128.17883231 396.1978714 143.76597289 402.98193359 164.03173828 C409.93494269 187.79202115 405.84527538 208.71829307 398.57128906 231.77978516 C390.45922924 257.50923882 384.91726755 279.86957458 396.88037109 305.49267578 C402.48215507 316.08709451 410.08992767 324.74556612 418.18505859 333.50048828 C437.56850531 355.12275256 451.9958896 379.36056698 450.89160156 409.29980469 C449.3360836 432.91134084 434.85351487 453.9453072 417.75537109 469.36767578 C407.33818339 478.22485114 396.02348213 485.94221722 384.79882812 493.72412109 C368.58170658 504.89132808 368.58170658 504.89132808 356.75537109 520.36767578 C356.07861328 521.60324219 356.07861328 521.60324219 355.38818359 522.86376953 C347.06030136 540.23405643 348.33010336 560.94410439 348.22119141 579.73925781 C347.96001245 607.79827375 342.91046816 632.57972569 323.00537109 653.49267578 C308.05978184 668.07649585 286.63816294 675.56044916 265.89990234 675.50048828 C264.78647713 675.50192337 264.78647713 675.50192337 263.65055847 675.50338745 C262.08482783 675.50406512 260.51909432 675.50223977 258.95336914 675.49804688 C256.59238135 675.49273097 254.23158711 675.49798619 251.87060547 675.50439453 C244.69960334 675.50742473 237.65763813 675.36082919 230.52026367 674.60351562 C224.59063283 674.09772989 218.64023582 674.14138227 212.69287109 674.11767578 C211.39542969 674.09705078 210.09798828 674.07642578 208.76123047 674.05517578 C191.1697237 673.98384681 180.25182835 680.35836856 167.75537109 692.36767578 C167.13919922 692.94388672 166.52302734 693.52009766 165.88818359 694.11376953 C160.11416468 699.6616172 155.25429034 705.99517016 150.26123047 712.23486328 C141.55052962 723.10444313 132.62149194 733.51739141 122.75537109 743.36767578 C122.10697266 744.06248047 121.45857422 744.75728516 120.79052734 745.47314453 C101.12962343 766.22415797 74.00900805 776.58288193 45.88037109 778.65283203 C18.20705605 779.33870083 -9.47870409 769.72800794 -30.24462891 751.36767578 C-31.07349609 750.64708984 -31.90236328 749.92650391 -32.75634766 749.18408203 C-41.57659289 741.39038908 -49.54802965 733.24113542 -56.89599609 724.04589844 C-61.37212511 718.47585664 -65.93961438 712.97909267 -70.5 707.47802734 C-71.62157005 706.12134507 -72.73940607 704.76156248 -73.85253906 703.39794922 C-84.93224208 689.8290978 -97.03260706 677.16708749 -115.24462891 674.36767578 C-120.20581468 674.10636704 -125.15291148 674.13405279 -130.11962891 674.18017578 C-131.43060547 674.18082031 -132.74158203 674.18146484 -134.09228516 674.18212891 C-139.43336922 674.20623611 -144.72160987 674.23331893 -150.02978516 674.85986328 C-157.09405763 675.66627042 -164.19849957 675.62884748 -171.30053711 675.6628418 C-172.95915288 675.67431172 -174.61773321 675.69468378 -176.27612305 675.72436523 C-191.23006374 675.99057661 -205.61712178 674.45751096 -219.18212891 667.61767578 C-219.88466797 667.27406006 -220.58720703 666.93044434 -221.31103516 666.57641602 C-227.27087259 663.55869852 -232.35320389 659.92836388 -237.24462891 655.36767578 C-238.01033203 654.69220703 -238.77603516 654.01673828 -239.56494141 653.32080078 C-258.68206867 635.56455377 -263.13135845 610.227805 -264.24462891 585.36767578 C-264.4736893 578.98819197 -264.60450671 572.60459395 -264.72143555 566.22216797 C-265.13634438 544.40839824 -266.90984311 524.19029573 -282.55712891 507.49267578 C-290.42054374 499.96286036 -299.58894385 493.9825134 -308.51220703 487.79541016 C-332.14736214 471.40698102 -353.04831255 454.02741993 -363.24462891 426.36767578 C-363.78603516 424.94648437 -363.78603516 424.94648437 -364.33837891 423.49658203 C-370.61043876 403.48987258 -365.81879182 382.27208318 -356.52856445 364.17675781 C-350.32132146 352.67849105 -342.14900328 342.92788776 -333.55322266 333.16064453 C-317.06718474 314.36723995 -303.64382788 296.13982399 -304.69775391 270.04345703 C-305.38836829 260.75025843 -308.30638807 252.15220545 -311.24462891 243.36767578 C-320.85050405 213.69653964 -328.85403212 183.41337455 -314.49462891 153.99267578 C-311.13748056 147.47641092 -307.21236574 141.78184403 -302.24462891 136.36767578 C-301.58076172 135.61228516 -300.91689453 134.85689453 -300.23291016 134.07861328 C-281.60029484 114.03391436 -254.79401534 108.81490402 -229.03417969 104.16992188 C-202.63171713 99.42598006 -202.63171713 99.42598006 -180.24462891 85.36767578 C-179.65552734 84.83142578 -179.06642578 84.29517578 -178.45947266 83.74267578 C-168.38154689 73.45814105 -163.35168985 58.45397072 -157.80712891 45.43017578 C-145.3440907 16.18721479 -130.1409154 -10.10073914 -99.24462891 -22.63232422 C-63.3247197 -35.35395873 -30.73075972 -17.41365997 0 0 Z M-97.92431641 36.35986328 C-104.90927692 46.06329491 -109.23533335 57.97543018 -113.91381836 68.90893555 C-120.57787612 84.4549829 -127.33052885 99.28521147 -138.24462891 112.36767578 C-139.06447266 113.36283203 -139.88431641 114.35798828 -140.72900391 115.38330078 C-165.48196231 144.42757786 -202.02687159 149.29440782 -237.44482422 156.1862793 C-238.12023758 156.3187204 -238.79565094 156.4511615 -239.49153137 156.58761597 C-241.33707988 156.94916723 -243.18328831 157.30734527 -245.02954102 157.6652832 C-254.71746544 159.78178093 -263.12519783 163.98369558 -268.65869141 172.55908203 C-275.84682261 186.5992088 -272.60505633 202.52438395 -268.03369141 216.86376953 C-267.74268555 217.75435059 -267.45167969 218.64493164 -267.15185547 219.5625 C-264.2854592 228.42549599 -261.73191629 237.3918847 -259.24462891 246.36767578 C-259.04675781 247.07102051 -258.84888672 247.77436523 -258.64501953 248.49902344 C-251.28428793 275.76334249 -255.83192237 304.33154297 -269.08837891 328.76611328 C-276.00480299 340.47301143 -284.63943686 350.77210855 -293.84228516 360.73095703 C-306.32772834 374.43449223 -318.04660477 387.49718968 -317.58837891 406.74267578 C-316.75238306 415.55863198 -312.3457903 421.24263509 -306.24462891 427.36767578 C-305.61685547 428.01865234 -304.98908203 428.66962891 -304.34228516 429.34033203 C-296.12108362 437.29393568 -286.30830612 443.27313636 -276.84423828 449.61962891 C-247.7387601 469.19093091 -226.93859006 491.65551238 -218.93212891 526.61767578 C-218.77252686 527.3136084 -218.6129248 528.00954102 -218.44848633 528.7265625 C-216.41474456 538.35960332 -216.18064144 548.08110631 -216.03369141 557.89111328 C-216.01927505 558.84638916 -216.0048587 559.80166504 -215.99000549 560.78588867 C-215.93289297 564.77209108 -215.87827621 568.75816379 -215.84326172 572.74462891 C-216.00420058 596.42398774 -216.00420058 596.42398774 -205.75244141 617.10595703 C-197.65153041 624.91616548 -187.34619403 625.88170239 -176.61767578 625.76806641 C-175.09749102 625.73889789 -173.57730872 625.70960071 -172.05712891 625.68017578 C-170.55649038 625.66864615 -169.05583731 625.65887243 -167.55517578 625.65087891 C-158.98586159 625.58008415 -150.4707496 625.17422708 -141.92211914 624.59692383 C-108.14976456 622.49161672 -81.05339663 628.24397757 -55.20166016 651.03955078 C-46.72697065 658.63124243 -39.51425235 666.95362341 -32.30712891 675.74267578 C-31.69522705 676.48654541 -31.0833252 677.23041504 -30.45288086 677.99682617 C-27.2432357 681.90534912 -24.06546837 685.83502075 -20.93212891 689.80517578 C-16.90747365 694.85304847 -12.65287771 699.65220704 -8.24462891 704.36767578 C-7.37708984 705.30095703 -6.50955078 706.23423828 -5.61572266 707.19580078 C6.62456187 719.9410188 20.98672344 728.35170269 38.89599609 728.79907227 C59.15538078 728.84884473 74.9883079 721.06638652 89.29833984 706.84130859 C96.24034619 699.82020432 102.58492665 692.46640291 108.6262207 684.65844727 C116.21620084 674.85511703 124.33461543 665.46523984 132.75537109 656.36767578 C133.35220703 655.70509766 133.94904297 655.04251953 134.56396484 654.35986328 C150.89306482 637.01238933 174.53630468 625.07138826 198.54541016 624.27514648 C201.8869408 624.2326432 205.22609722 624.22967819 208.56787109 624.24267578 C209.78200684 624.24460937 210.99614258 624.24654297 212.24707031 624.24853516 C218.64392068 624.27912177 224.9998403 624.41957383 231.38037109 624.86767578 C239.40287255 625.39893499 247.4311319 625.57774668 255.46917725 625.65478516 C256.93058155 625.67147179 258.39192564 625.6951867 259.85308838 625.7265625 C270.00131701 625.93482129 279.69759316 625.42209935 288.13037109 619.11767578 C298.46985112 608.28583956 299.8705057 594.90620999 299.93115234 580.55517578 C299.95439323 578.40412479 299.97851214 576.25308314 300.00341797 574.10205078 C300.03811432 570.76149621 300.06765213 567.42127693 300.08129883 564.08056641 C300.1846924 542.84193547 301.75147513 521.8821162 310.75537109 502.36767578 C311.18825439 501.41755615 311.18825439 501.41755615 311.62988281 500.44824219 C318.77965752 485.11624829 330.02028313 472.02420254 343.63037109 461.99267578 C344.29311035 461.49864258 344.95584961 461.00460937 345.63867188 460.49560547 C353.1944874 454.93243948 360.99111295 449.70932261 368.79785156 444.50683594 C382.81822453 435.10871075 396.22733191 425.95179333 401.75537109 409.36767578 C403.13661711 395.96279639 397.67546199 384.88713034 389.35888672 374.6484375 C385.57701121 370.1462624 381.66809733 365.75601336 377.75537109 361.36767578 C354.86640916 335.69425436 338.55418795 307.74457549 339.47412109 272.25048828 C340.91788817 252.31848176 346.55067601 233.74261446 352.75073242 214.84594727 C356.57406983 203.06204945 360.07649211 188.1539104 355.13037109 176.18017578 C354.03363928 174.17752079 354.03363928 174.17752079 352.75537109 172.36767578 C352.36607422 171.74892578 351.97677734 171.13017578 351.57568359 170.49267578 C344.77433164 161.1559086 332.49005096 158.39521802 321.75537109 156.36767578 C319.29179001 155.86917263 316.82824954 155.37046872 314.36474609 154.87158203 C313.11113281 154.62424316 311.85751953 154.3769043 310.56591797 154.12207031 C273.80281309 146.84388002 239.72658282 137.9990303 216.94287109 105.93017578 C215.52148609 103.75919176 214.12525648 101.5715181 212.75537109 99.36767578 C212.07990234 98.29130859 211.40443359 97.21494141 210.70849609 96.10595703 C205.49934816 87.41394855 201.61922533 78.32620388 197.80712891 68.953125 C188.24230982 42.88898779 188.24230982 42.88898779 168.69287109 24.43017578 C156.77888254 19.53780122 145.17541028 22.62611074 133.75537109 27.36767578 C129.11499508 29.66758585 124.69129247 32.26070964 120.25537109 34.93017578 C117.81436983 36.36337794 115.36663852 37.78494303 112.91943359 39.20751953 C112.31390656 39.56112549 111.70837952 39.91473145 111.08450317 40.27905273 C82.314707 57.05469264 52.86379692 69.53743548 19.02685547 61.19311523 C-1.50067149 55.64856196 -20.41786897 44.58314317 -38.5390625 33.70263672 C-59.33980292 21.30566336 -80.51039037 15.70613705 -97.92431641 36.35986328 Z " fill="#F87518" transform="translate(469.24462890625,138.63232421875)"/>
<path d="M0 0 C1.2375 0.7425 1.2375 0.7425 2.5 1.5 C7.90746388 6.90746388 11.3314893 13.30382881 11.8125 21 C11.41823901 27.30012964 9.05484994 31.3223087 5.29736328 36.28417969 C3.78320161 38.28672546 2.31203815 40.3179713 0.83984375 42.3515625 C-5.17124698 50.61660017 -11.32154983 58.77922933 -17.46411133 66.94677734 C-23.10126568 74.44873618 -28.65527696 82.01166805 -34.21337891 89.57226562 C-35.98714006 91.98252539 -37.76443644 94.39013424 -39.54296875 96.796875 C-45.23544696 104.50277755 -50.9015669 112.22543743 -56.5 120 C-62.67793934 128.57932481 -68.94195155 137.09324085 -75.22509766 145.59570312 C-77.01096782 148.0148571 -78.79318282 150.43666019 -80.57421875 152.859375 C-86.03584163 160.28688244 -91.51338964 167.70006878 -97.0625 175.0625 C-101.27905068 180.65864328 -105.41064609 186.31030599 -109.5 192 C-113.58935604 197.68969698 -117.72105843 203.34127225 -121.9375 208.9375 C-130.90486815 220.83956221 -139.74014632 232.83671799 -148.4375 244.9375 C-153.66240005 252.20588457 -159.01228714 259.37346041 -164.40063477 266.52124023 C-169.1853057 272.88080091 -173.86538228 279.30957533 -178.5078125 285.7734375 C-182.15575338 290.84804832 -185.88100704 295.85704205 -189.6484375 300.84375 C-192.51938586 304.6971159 -195.32166633 308.59731979 -198.125 312.5 C-203.00043144 319.27598647 -207.93918032 326.00161288 -212.9375 332.6875 C-213.85909912 333.925 -213.85909912 333.925 -214.79931641 335.1875 C-226.68650486 351.03276238 -226.68650486 351.03276238 -234 353 C-241.43651886 353.92087734 -248.24608298 354.17903776 -254.39453125 349.47265625 C-260.77517044 343.61985582 -264.18094762 337.09632593 -265.5625 328.5 C-264.11402295 319.48725392 -258.46363741 312.71804981 -252.9296875 305.734375 C-249.58132626 301.50123745 -246.38258167 297.16191106 -243.1875 292.8125 C-242.59267822 292.00369385 -241.99785645 291.1948877 -241.38500977 290.36157227 C-236.85380852 284.1882153 -232.3680714 277.98270626 -227.89306641 271.76855469 C-222.243636 263.93208278 -216.50721873 256.16054194 -210.76611328 248.39111328 C-207.84043906 244.43008849 -204.92042722 240.46489406 -202 236.5 C-198.49111076 231.73618529 -194.98102197 226.97328202 -191.46484375 222.21484375 C-185.77035401 214.50460543 -180.10117057 206.77836411 -174.5 199 C-168.31898737 190.41640731 -162.05214333 181.89798751 -155.76611328 173.39111328 C-152.84043906 169.43008849 -149.92042722 165.46489406 -147 161.5 C-143.49111076 156.73618529 -139.98102197 151.97328202 -136.46484375 147.21484375 C-130.77035401 139.50460543 -125.10117057 131.77836411 -119.5 124 C-113.31898737 115.41640731 -107.05214333 106.89798751 -100.76611328 98.39111328 C-97.84043897 94.43008838 -94.92049694 90.46484283 -92 86.5 C-90.8333611 84.91664621 -89.66669442 83.33331288 -88.5 81.75 C-87.9225 80.96625 -87.345 80.1825 -86.75 79.375 C-80.33333333 70.66666667 -73.91666667 61.95833333 -67.5 53.25 C-66.92233887 52.4660083 -66.34467773 51.6820166 -65.74951172 50.87426758 C-64.58456151 49.29331017 -63.41952266 47.71241808 -62.25439453 46.1315918 C-58.71551158 41.32981142 -55.18003337 36.52554816 -51.64697266 31.71948242 C-49.89836153 29.34423344 -48.14480641 26.97269945 -46.390625 24.6015625 C-44.1494892 21.57026625 -41.93343602 18.52287071 -39.734375 15.4609375 C-38.69805596 14.03635699 -37.66160401 12.61187316 -36.625 11.1875 C-36.17366699 10.5478833 -35.72233398 9.9082666 -35.25732422 9.24926758 C-26.68763828 -2.43397746 -13.24045808 -8.313776 0 0 Z " fill="#F87518" transform="translate(633,322)"/>
<path d="M0 0 C14.86509487 12.06582376 27.30362785 28.53724621 30 48 C31.24921977 62.38730665 30.74317471 75.64977066 25 89 C24.54238281 90.08410156 24.08476563 91.16820312 23.61328125 92.28515625 C20.35500838 99.34623527 16.14456989 105.19586987 11 111 C10.48050781 111.61359375 9.96101562 112.2271875 9.42578125 112.859375 C-1.6341391 125.00578627 -19.0489801 132.73935664 -35.2722168 134.20532227 C-37.58155792 134.30240348 -39.87621514 134.32905545 -42.1875 134.3125 C-43.01193604 134.30758545 -43.83637207 134.3026709 -44.68579102 134.29760742 C-63.87621861 133.93468109 -81.67170569 126.47590763 -95.7421875 113.4140625 C-111.12289505 96.96894612 -117.92595818 77.8386109 -117.34765625 55.4921875 C-116.40905925 36.05414647 -107.23220512 18.07097082 -93.125 4.71484375 C-65.90325375 -17.25270515 -29.16155236 -20.96263566 0 0 Z " fill="#F87517" transform="translate(655,538)"/>
<path d="M0 0 C14.20551432 12.06551575 24.50999032 29.65260606 26.22143555 48.42944336 C27.14973616 68.54130373 23.53773033 88.4170645 9.91918945 104.02734375 C7.68999061 106.43869801 5.3657677 108.72172371 3 111 C2.35546875 111.66386719 1.7109375 112.32773437 1.046875 113.01171875 C-12.59836709 126.2120073 -31.10376152 130.65963698 -49.51391602 130.46875 C-69.90104046 129.82276801 -87.0092644 121.52801424 -101 107 C-101.66386719 106.35546875 -102.32773437 105.7109375 -103.01171875 105.046875 C-116.63744713 90.96185241 -120.63958402 72.44366347 -120.46875 53.54248047 C-120.23371401 45.08240889 -119.42476133 37.82941188 -116 30 C-115.73687012 29.39687988 -115.47374023 28.79375977 -115.20263672 28.17236328 C-110.73113993 18.22979911 -104.77658289 10.570429 -97 3 C-96.32066406 2.32324219 -95.64132812 1.64648438 -94.94140625 0.94921875 C-68.48114078 -23.86071831 -27.33246256 -21.72669635 0 0 Z " fill="#F87518" transform="translate(454,340)"/>
<path d="M0 0 C5.88403896 3.83741672 9.66912572 8.67465858 11.75 15.4375 C12.59843431 24.13395165 11.72191923 30.83706471 6.875 38.25 C0.17913828 44.6547373 -7.08827808 47.46177064 -16.2734375 47.33984375 C-22.64863281 46.54522772 -28.09465366 43.36276174 -32.4375 38.6875 C-37.08161312 32.56990056 -38.65452836 26.46912813 -38.41015625 18.80859375 C-37.34567368 11.5194226 -33.64130312 5.61143548 -27.80859375 1.18359375 C-19.05152127 -4.54727658 -9.30856862 -4.6023778 0 0 Z " fill="#FAF9F9" transform="translate(625,576)"/>
<path d="M0 0 C7.44608653 4.43901312 13.0480625 9.29489532 15.25 17.9375 C16.41975322 26.36947109 14.81036797 33.05166895 9.8125 39.91015625 C5.28263451 45.03892223 -0.09872051 47.54494562 -6.75 48.9375 C-14.36642532 49.38684663 -20.98906973 47.27551441 -26.6953125 42.2109375 C-32.01385529 36.6253549 -34.69802305 30.646762 -35.1875 22.9375 C-34.86826312 15.6530949 -30.91071037 8.87383166 -25.75 3.9375 C-17.64362814 -1.7056097 -9.45571006 -2.67911785 0 0 Z " fill="#FAFAF9" transform="translate(416.75,373.0625)"/>
<path d="M0 0 C1 4 1 4 -0.25 6.25 C-0.8275 6.8275 -1.405 7.405 -2 8 C-2.99 8 -3.98 8 -5 8 C-5.66 9.32 -6.32 10.64 -7 12 C-7.66 11.67 -8.32 11.34 -9 11 C-6.03 7.37 -3.06 3.74 0 0 Z " fill="#F8630F" transform="translate(152,452)"/>
<path d="M0 0 C0.99 0.33 1.98 0.66 3 1 C0.66153846 6.66153846 0.66153846 6.66153846 -2.6875 8.375 C-3.450625 8.58125 -4.21375 8.7875 -5 9 C-3.50163895 5.88801935 -1.80066242 2.9465385 0 0 Z " fill="#F76712" transform="translate(453,528)"/>
<path d="M0 0 C-1.65 0.33 -3.3 0.66 -5 1 C-5 1.66 -5 2.32 -5 3 C-6.98 3.33 -8.96 3.66 -11 4 C-11.33 3.34 -11.66 2.68 -12 2 C-10.56656 1.46809459 -9.12804633 0.94984742 -7.6875 0.4375 C-6.48673828 0.00244141 -6.48673828 0.00244141 -5.26171875 -0.44140625 C-3 -1 -3 -1 0 0 Z " fill="#F7630F" transform="translate(269,238)"/>
<path d="M0 0 C0.33 0.66 0.66 1.32 1 2 C2.32 1.67 3.64 1.34 5 1 C1.98112756 4.48331435 -0.56909529 5.79157144 -5 7 C-4.54625 6.5875 -4.0925 6.175 -3.625 5.75 C-1.94049626 3.93591905 -1.00734029 2.24714373 0 0 Z " fill="#F8630E" transform="translate(578,176)"/>
</svg>
